<svg xmlns="http://www.w3.org/2000/svg" width="550" height="496" viewBox="0 0 550 496" fill="none"><path fill-rule="evenodd" clip-rule="evenodd" d="M150.182 136.971C153.986 134.688 157.768 132.575 161.708 130.524C193.619 114.676 220.442 108.297 256.326 108.652C292.283 110.427 318.543 118.492 349.267 136.734C370.45 150.857 416.02 191.428 422.262 216.225C392.951 188.807 400.695 175.755 346.227 141.547C316.213 124.634 290.825 117.285 256.151 116.046C221.759 116.153 196.179 122.487 165.648 137.76C161.871 139.732 158.247 141.772 154.6 143.959C138.903 154.576 87.514 202.09 87.2889 201.538C69.4481 201.014 145.527 140.144 150.182 136.976V136.971Z" fill="#CDE2D8"></path><path d="M252.438 494.76C356.772 494.76 441.353 410.065 441.353 305.589C441.353 201.112 356.772 116.417 252.438 116.417C148.103 116.417 63.5225 201.112 63.5225 305.589C63.5225 410.065 148.103 494.76 252.438 494.76Z" fill="#7AA7CA"></path><path fill-rule="evenodd" clip-rule="evenodd" d="M252.437 116.417C332.585 116.417 401.072 166.4 428.52 236.93C427.164 275.765 359.166 323.121 270.812 340.09C177.258 358.057 63.0996 343.488 63.5217 305.589C64.0057 261.817 78.374 221.505 103.306 189.45C137.873 145.001 191.823 116.417 252.442 116.417H252.437Z" fill="#A0C3D4"></path><path fill-rule="evenodd" clip-rule="evenodd" d="M152.045 156.6C192.251 131.284 238.846 129.611 256.112 152.863C281.928 187.624 133.9 276.041 110.51 244.544C93.2437 221.291 111.839 181.915 152.045 156.6Z" fill="#B0CED5"></path><path fill-rule="evenodd" clip-rule="evenodd" d="M252.437 115.178C259.888 115.178 266.389 136.768 270.885 171.669C275.303 205.973 278.039 253.324 278.039 305.589C278.039 357.854 275.309 405.204 270.885 439.508C266.389 474.41 259.888 496 252.437 496C244.985 496 238.485 474.415 233.988 439.508C229.57 405.204 226.835 357.854 226.835 305.589C226.835 253.324 229.57 205.973 233.988 171.669C238.485 136.768 244.985 115.178 252.437 115.178ZM268.443 171.974C264.12 138.408 258.442 117.652 252.437 117.652C246.432 117.652 240.753 138.413 236.431 171.974C232.03 206.137 229.311 253.375 229.311 305.583C229.311 357.792 232.03 405.03 236.431 439.193C240.753 472.759 246.432 493.52 252.437 493.52C258.442 493.52 264.12 472.759 268.443 439.193C272.844 405.03 275.562 357.792 275.562 305.583C275.562 253.375 272.844 206.137 268.443 171.974Z" fill="#83ADCC"></path><path fill-rule="evenodd" clip-rule="evenodd" d="M252.437 115.178C271.808 115.178 289.227 136.666 301.732 171.404C314.097 205.771 321.751 253.211 321.751 305.583C321.751 357.955 314.103 405.396 301.732 439.762C289.232 474.5 271.808 495.989 252.437 495.989C233.065 495.989 215.641 474.5 203.141 439.762C190.776 405.396 183.122 357.955 183.122 305.583C183.122 253.211 190.771 205.771 203.141 171.404C215.641 136.666 233.059 115.178 252.437 115.178ZM299.419 172.239C287.279 138.515 270.666 117.652 252.437 117.652C234.207 117.652 217.594 138.509 205.46 172.239C193.185 206.34 185.598 253.482 185.598 305.589C185.598 357.696 193.191 404.838 205.46 438.939C217.594 472.663 234.213 493.526 252.437 493.526C270.66 493.526 287.279 472.668 299.419 438.939C311.688 404.838 319.28 357.696 319.28 305.589C319.28 253.482 311.688 206.34 299.419 172.239Z" fill="#83ADCC"></path><path fill-rule="evenodd" clip-rule="evenodd" d="M252.437 115.178C283.774 115.178 312.094 136.582 332.546 171.196C352.886 205.613 365.464 253.127 365.464 305.589C365.464 358.051 352.886 405.565 332.546 439.982C312.094 474.59 283.774 496 252.437 496C221.101 496 192.78 474.596 172.328 439.982C151.994 405.565 139.41 358.051 139.41 305.589C139.41 253.127 151.989 205.613 172.328 171.196C192.78 136.587 221.101 115.178 252.437 115.178ZM330.424 172.447C310.417 138.588 282.84 117.652 252.437 117.652C222.035 117.652 194.458 138.594 174.45 172.447C154.33 206.498 141.881 253.566 141.881 305.583C141.881 357.6 154.33 404.669 174.45 438.719C194.458 472.578 222.035 493.52 252.437 493.52C282.84 493.52 310.417 472.578 330.424 438.719C350.545 404.669 362.994 357.6 362.994 305.583C362.994 253.566 350.545 206.498 330.424 172.447Z" fill="#83ADCC"></path><path fill-rule="evenodd" clip-rule="evenodd" d="M252.437 115.178C295.761 115.178 334.977 136.526 363.348 171.038C391.662 205.483 409.177 253.054 409.177 305.583C409.177 358.113 391.662 405.683 363.348 440.128C334.977 474.641 295.767 495.989 252.437 495.989C209.107 495.989 169.897 474.641 141.526 440.128C113.211 405.683 95.6914 358.113 95.6914 305.583C95.6914 253.054 113.206 205.483 141.526 171.038C169.897 136.526 209.107 115.178 252.437 115.178ZM361.446 172.605C333.536 138.65 294.996 117.652 252.437 117.652C209.878 117.652 171.337 138.65 143.428 172.605C115.463 206.622 98.1677 253.64 98.1677 305.583C98.1677 357.527 115.463 404.545 143.428 438.567C171.337 472.522 209.878 493.52 252.437 493.52C294.996 493.52 333.536 472.522 361.446 438.567C389.411 404.551 406.706 357.532 406.706 305.583C406.706 253.634 389.411 206.622 361.446 172.605Z" fill="#83ADCC"></path><path fill-rule="evenodd" clip-rule="evenodd" d="M442.585 305.589C442.585 313.045 421.024 319.56 386.17 324.062C351.912 328.486 304.626 331.22 252.432 331.22C200.238 331.22 152.951 328.486 118.693 324.062C83.8392 319.56 62.2783 313.05 62.2783 305.589C62.2783 298.127 83.8392 291.618 118.693 287.115C152.951 282.691 200.238 279.958 252.432 279.958C304.626 279.958 351.912 282.691 386.17 287.115C421.024 291.618 442.585 298.127 442.585 305.589ZM385.86 321.617C419.381 317.288 440.114 311.602 440.114 305.589C440.114 299.576 419.381 293.889 385.86 289.561C351.743 285.154 304.569 282.432 252.432 282.432C200.294 282.432 153.12 285.16 119.003 289.561C85.4826 293.889 64.749 299.576 64.749 305.589C64.749 311.602 85.4826 317.288 119.003 321.617C153.12 326.024 200.294 328.746 252.432 328.746C304.569 328.746 351.743 326.018 385.86 321.617Z" fill="#83ADCC"></path><path fill-rule="evenodd" clip-rule="evenodd" d="M442.585 305.589C442.585 324.987 421.126 342.435 386.435 354.952C352.115 367.333 304.739 374.998 252.438 374.998C200.137 374.998 152.76 367.339 118.441 354.952C83.7496 342.435 62.29 324.987 62.29 305.589C62.29 286.191 83.7496 268.743 118.441 256.227C152.76 243.845 200.137 236.181 252.438 236.181C304.739 236.181 352.115 243.839 386.435 256.227C421.126 268.743 442.585 286.191 442.585 305.589ZM385.602 352.635C419.28 340.479 440.115 323.843 440.115 305.589C440.115 287.335 419.285 270.699 385.602 258.543C351.547 246.257 304.469 238.655 252.432 238.655C200.396 238.655 153.317 246.257 119.262 258.543C85.5843 270.693 64.7495 287.335 64.7495 305.589C64.7495 323.843 85.5843 340.479 119.262 352.635C153.317 364.921 200.396 372.524 252.432 372.524C304.469 372.524 351.547 364.921 385.602 352.635Z" fill="#83ADCC"></path><path fill-rule="evenodd" clip-rule="evenodd" d="M442.585 305.589C442.585 336.968 421.204 365.327 386.642 385.807C352.272 406.174 304.823 418.77 252.432 418.77C200.041 418.77 152.591 406.174 118.221 385.807C83.6591 365.327 62.2783 336.968 62.2783 305.589C62.2783 274.21 83.6535 245.851 118.221 225.372C152.591 205.004 200.041 192.409 252.432 192.409C304.823 192.409 352.272 205.004 386.642 225.372C421.204 245.851 442.585 274.21 442.585 305.589ZM385.393 383.682C419.206 363.647 440.12 336.033 440.12 305.589C440.12 275.145 419.206 247.531 385.393 227.496C351.389 207.349 304.384 194.883 252.437 194.883C200.491 194.883 153.486 207.349 119.481 227.496C85.6683 247.531 64.7546 275.145 64.7546 305.589C64.7546 336.033 85.6683 363.647 119.481 383.682C153.486 403.829 200.491 416.295 252.437 416.295C304.384 416.295 351.389 403.829 385.393 383.682Z" fill="#83ADCC"></path><path fill-rule="evenodd" clip-rule="evenodd" d="M442.585 305.589C442.585 348.972 421.266 388.241 386.8 416.65C352.402 445.003 304.896 462.541 252.438 462.541C199.979 462.541 152.473 445.003 118.075 416.65C83.6089 388.241 62.29 348.978 62.29 305.589C62.29 262.2 83.6089 222.937 118.075 194.528C152.473 166.175 199.979 148.637 252.438 148.637C304.896 148.637 352.402 166.175 386.8 194.528C421.266 222.937 442.585 262.2 442.585 305.589ZM385.236 414.746C419.145 386.799 440.115 348.206 440.115 305.589C440.115 262.972 419.145 224.38 385.236 196.433C351.265 168.429 304.311 151.111 252.432 151.111C200.553 151.111 153.604 168.429 119.634 196.433C85.725 224.38 64.7551 262.972 64.7551 305.589C64.7551 348.206 85.725 386.799 119.634 414.746C153.604 442.749 200.559 460.067 252.432 460.067C304.305 460.067 351.26 442.749 385.236 414.746Z" fill="#83ADCC"></path><path fill-rule="evenodd" clip-rule="evenodd" d="M213.564 160.015C213.62 162.658 215.005 160.832 213.784 159.981L213.564 160.015ZM391.06 194.922C389.771 196.776 389.208 197.064 388.015 199.38C385.815 203.652 383.203 206.994 382.849 199.864C382.556 193.975 380.541 195.271 384.74 189.709C386.822 187.303 393.092 183.91 394.78 181.222C395.624 182.191 396.463 183.177 397.285 184.164C396.547 184.451 395.928 184.789 395.607 185.206C394.741 186.345 394.96 186.829 393.154 186.891C391.212 186.959 393.857 188.689 393.097 189.918C392.354 191.112 395.557 191.462 392.962 193.203C391.972 193.868 391.809 194.02 391.06 194.916V194.922ZM392.99 179.204C391.859 179.475 390.57 180.01 389.861 180.134C384.093 181.171 384.706 179.537 380.986 184.75C378.881 187.787 379.044 187.308 374.992 185.668C371.97 184.457 369.297 185.155 366.083 184.519C362.245 183.758 361.243 183.989 359.003 187.105C355.784 191.586 356.729 190.188 352.058 192.899C348.974 194.691 348.923 196.528 351.732 198.766C354.596 201.054 360.708 199.002 358.536 205.962C357.59 209 350.544 221.19 346.014 220.57C341.376 219.939 341.961 220.271 340.847 224.312C340.504 225.569 339.75 226.949 339.288 228.285C338.669 230.235 340.526 235.279 338.359 236.248C335.939 237.33 333.964 229.254 331.707 227.862C329.411 226.448 320.389 226.329 322.685 230.162C324.064 232.455 325.353 233.194 324.886 235.938C324.183 240.075 327.751 241.422 327.914 242.769C328.15 244.673 326.012 252.4 324.289 254.389C323.248 255.59 321.751 256.604 320.417 257.534C317.66 259.247 314.868 259.591 311.773 261.338C307.783 263.322 308.644 259.783 305.081 261.682C300.826 263.947 303.1 267.103 305.306 269.605C307.344 271.922 308.193 274.024 307.912 277.039C307 280.73 305.869 280.11 303.336 282.956C301.338 285.205 300.804 282.798 299.498 280.826C295.48 274.762 291.518 277.18 294.973 284.506C295.497 285.611 301.367 294.746 298.08 294.368C295.654 294.087 292.266 283.311 291.973 280.95C291.501 277.123 291.827 276.199 290.313 272.294C287.533 266.63 284.471 276.729 284.162 269.628C283.982 265.559 286.07 267.605 282.327 263.085C279.772 260.002 280.824 256.57 277.414 260.081C275.36 262.195 273.576 261.067 273.215 262.876C272.956 264.167 271.763 264.871 270.683 265.66C267.925 267.458 267.886 267.334 265.454 269.6C262.939 271.944 262.387 270.096 261.858 274.818L261.684 276.368C261.357 279.874 260.997 280.849 263.136 283.83C265.392 286.974 262.59 289.916 261.222 285.43C260.22 282.162 260.676 283.841 258.566 283.875C256.044 283.92 254.322 277.557 253.658 275.72C252.397 272.249 249.809 267.813 250.253 264.46C250.715 260.989 250.675 261.721 247.979 261.422C243.567 260.228 245.79 253.403 237.393 253.634C228.625 253.876 232.063 254.085 224.089 251.16C219.839 249.599 220.228 250.461 216.524 247.288C211.296 242.819 212.298 250.027 216.519 252.761C220.712 255.483 226.655 253.623 228.321 259.36C229.902 264.81 219.946 270.71 215.348 273.06C212.191 274.672 206.991 277.061 204.334 273.68L203.991 273.004C202.646 269.724 203.406 269.425 200.991 265.751C199.078 262.837 198.374 261.479 197.007 258.486C196.584 257.562 192.212 248.263 190.287 250.563C189.009 252.09 194.367 262.076 195.346 264.353C196.388 266.776 197.474 266.472 198.07 269.605C198.363 271.15 201.543 273.967 202.815 275.884C205.617 280.116 205.488 280.584 211.91 278.713C217.296 277.146 217.898 277.907 215.967 282.68C213.575 288.609 211.955 290.559 206.563 294.47C204.013 296.318 202.865 297.445 201.661 300.207C199.686 305.375 196.551 304.535 197.688 310.661C198.183 313.321 198.605 316.021 199.1 318.72C200.006 323.617 200.113 327.433 194.468 329.777C190.292 331.265 188.812 331.44 190.27 336.117C191.491 339.448 192.358 341.274 188.351 343.088C184.591 344.796 189.094 346.222 185.48 350.347C183.618 352.472 184.135 352.213 182.886 354.224C180.972 357.313 176.391 358.598 172.632 358.806C171.039 358.891 169.716 358.947 168.112 359.122C162.355 359.894 164.235 357.223 163.104 352.985C161.595 347.338 158.505 348.623 158.061 342.598C157.864 335.79 157.318 335.272 154.785 329.056C152.247 322.811 156.147 324.006 157.751 319.616C158.747 316.888 157.436 314.048 156.254 311.551C153.429 306.079 147.88 302.692 150.187 295.946C150.868 293.951 154.031 292.745 151.172 291.117C146.991 288.727 145.021 293.484 142.556 290.023L142.01 289.257C140.299 286.743 139.562 286.834 136.477 288.22C132.296 290.097 129.887 290.621 125.16 290.931C120.663 291.224 117.539 288.648 115.136 285.504C113.391 283.227 112.271 279.947 110.724 277.338C108.135 272.981 109.086 271.414 108.613 266.81C107.848 260.819 108.135 260.29 111.523 254.93C114.827 249.7 118.417 249.96 119.971 243.552C121.31 238.04 126.488 238.04 126.336 234.698C126.206 231.807 120.753 232.777 120.426 226.679C119.965 216.332 121.777 220.491 130.484 218.479C136.404 217.115 130.669 212.24 128.761 210.211C133.59 207.692 134.389 208.493 139.218 204.598C144.829 200.079 145.42 199.983 152.607 197.96C158.224 196.376 158.252 194.415 155.258 189.985C151.183 183.955 149.771 189.715 146.197 187.691C143.648 186.249 143.811 181.115 145.933 179.001C147.891 177.057 162.946 166.524 159.35 164.732C157.892 164.005 158.111 163.644 159.867 162.731C162.079 161.582 164.325 161.012 166.694 159.716C175.62 154.83 174.168 155.151 184.552 158.448C186.572 159.091 207.098 165.628 195.217 167.014C193.585 167.206 189.217 167.538 187.923 168.08C187.855 169.686 192.392 173.394 193.906 174.38C195.96 175.321 197.648 172.611 199.202 171.32C201.869 169.105 203.074 169.381 205.443 166.535C207.694 163.836 207.914 166.924 213.3 165.572C217.656 164.478 217.301 164.067 222.4 163.988C225.721 163.937 230.077 164.118 232.328 161.559C233.729 159.964 234.528 160.426 236.87 161.266C242.779 163.379 243.466 164.963 243.449 157.924C243.443 154.954 244.299 149.358 248.857 149.409C252.836 149.454 255.059 155.822 258.352 155.253C259.877 154.593 262.91 151.736 264.047 150.479C265.184 149.087 268.111 149.341 270.081 149.217C277.875 148.732 269.445 147.431 277.498 144.551C279.93 143.683 287.82 141.158 289.88 142.511C290.977 143.232 290.521 143.688 292.694 142.511C296.763 140.301 299.937 136.655 304.226 140.572C305.914 142.319 306.409 140.961 309.15 140.465C311.12 140.11 313.596 141.445 314.48 143.012C316.376 146.382 307.968 148.546 313.242 149.831C316.208 150.553 317.705 149.116 322.747 151.004C328.184 153.038 325.432 151.866 330.615 152.452C336.75 153.145 339.744 157.039 345.591 156.34C350.989 155.411 354.388 158.933 356.982 154.007C358.322 151.466 359.577 151.747 362.633 152.745C363.505 153.032 364.198 153.286 364.772 153.523C375.02 161.125 384.475 169.742 392.985 179.227L392.99 179.204ZM205.398 328.892C204.391 331.772 205.837 331.874 203.614 334.917C201.83 337.363 202.584 337.937 203.783 340.795C206.597 347.479 209.529 345.044 210.548 339.594C211.426 334.866 211.082 333.699 213.395 329.101C214.425 327.055 215.95 323.313 213.975 321.329C212.546 319.892 211.088 325.156 207.964 326.762C206.479 327.523 206.287 327.472 205.404 328.898L205.398 328.892ZM343.644 240.948C343.29 238.418 340.695 237.634 341.083 239.968C341.123 240.221 341.669 243.304 342.361 242.983C343.031 242.673 343.453 241.512 343.65 240.943L343.644 240.948ZM346.092 240.266C347.145 240.125 347.105 238.153 350.071 238.322C351.743 238.418 351.242 237.155 354 236.896C355.474 236.755 357.883 235.493 358.102 234.152C358.39 232.388 358.198 231.587 358.767 229.592C359.965 223.652 356.881 223.078 356.437 227.124C356.251 228.809 354.602 230.86 353.049 231.914C350.094 233.915 351.445 233.746 349.756 235.29C347.86 237.02 343.661 234.867 345.288 239.19C345.456 239.641 345.603 240.069 346.098 240.272L346.092 240.266ZM223.559 157.947C223.796 157.918 225.918 157.789 226.148 157.423C226.435 156.972 221.798 153.399 226.368 148.445C230.448 144.021 236.639 145.881 242.79 140.33C242.267 139.992 241.89 139.665 241.192 139.783C240.337 139.93 238.389 141.434 236.071 141.958C229.784 143.379 230.651 142.342 224.201 145.199C222.901 145.774 219.49 146.664 220.543 148.434C221.505 150.057 220.188 148.935 218.117 151.353C217.127 152.508 215.433 153.833 217.318 154.295C222.068 155.45 219.271 157.614 223.565 157.947H223.559ZM192.155 217.448C193.405 215.796 187.22 215.278 188.84 217.245C189.64 218.214 191.12 217.989 192.155 217.448ZM157.098 186.666C158.28 186.39 158.185 184.135 156.93 185.747C156.665 186.085 156.462 186.564 157.098 186.666ZM185.036 181.735C187.276 184.536 188.593 180.438 185.689 179.92C184.079 179.633 184.625 181.008 185.036 181.735ZM163.779 196.421C170.994 194.116 166.137 192.459 172.643 190.03C174.078 189.495 173.549 186.711 179.577 184.49C186.015 182.118 176.099 182.732 174.039 182.293C164.95 180.365 178.294 169.939 173.876 169.967C171.579 169.984 168.962 173.236 167.06 174.628C162.372 178.06 162.383 177.739 164.634 182.687C166.148 186.006 164.184 185.415 162.524 188.852C161.336 191.315 161.86 190.481 160.244 192.662C158.579 194.911 157.757 197.605 162.147 196.793L163.779 196.41V196.421ZM221.241 232.455C221.252 230.528 220.926 228.567 220.402 226.707C219.547 223.658 222.192 225.073 221.578 224.132C221.573 224.12 219.192 222.103 218.832 221.736C218.32 221.224 215.331 218.355 215.821 217.673C216.266 217.053 218.382 215.898 219.614 216.377C221.196 216.986 222.485 217.171 221.168 215.041C220.335 213.694 217.915 212.054 216.187 212.223C215.101 212.33 209.85 215.176 209.675 216.422C209.411 218.332 211.217 221.471 212.394 223.044C214.724 226.172 212.838 226.324 214.2 229.694C215.663 233.301 220.864 234.259 221.235 232.455H221.241ZM195.662 212.28C193.129 213.029 192.673 214.85 188.795 214.664C185.008 214.483 185.509 210.961 181.158 218.276C178.333 223.021 180.033 225.123 185.891 223.359C191.925 221.545 193.146 225.197 197.789 224.396C201.532 223.641 200.282 221.314 197.845 219.448C193.09 215.802 196.804 215.543 197.524 212.855C197.851 211.649 196.371 212.122 195.662 212.285V212.28ZM131.958 231.988C123.809 236.969 137.187 233.56 139.297 233.205C142.134 232.726 151.273 231.165 151.465 235.437L151.414 236.164C150.846 239.675 153.755 238.863 157.048 240.993C158.894 242.182 165.31 248.162 166.357 243.603C166.931 241.1 167.431 240.413 170.87 240.892C179.346 242.363 177.269 246.477 187.906 243.174C191.767 241.754 193.174 239.297 192.96 235.617C192.741 231.835 190.101 234.817 186.325 233.425C182.34 231.954 183.077 234.71 180.494 233.458C177.466 231.988 177.871 222.187 173.009 225.935C170.431 227.924 174.157 228.572 173.065 230.624L172.564 231.311C170.274 233.599 168.225 228.905 167.246 227.355C165.58 223.793 170.324 225.388 161.989 220.215C160.65 219.352 157.25 216.084 156.288 216.005C154.397 215.853 157.796 221.708 159.001 222.74C162.113 225.4 164.786 224.836 161.927 229.739C160.745 231.565 158.691 231.897 156.508 231.261C152.422 230.071 165.175 230.951 157.324 224.718C154.555 222.492 154.887 222.227 152.799 220.023C150.384 217.476 148.229 219.736 144.689 220.023C141.464 220.288 140.563 221.094 138.419 223.275C133.174 228.601 138.155 227.958 131.958 231.982V231.988Z" fill="#7A9F8E"></path><path fill-rule="evenodd" clip-rule="evenodd" d="M289.83 293.991C292.21 296.532 291.771 297.834 292.565 298.832C294.017 300.641 294.101 299.299 295.367 302.562C296.33 305.036 301.693 311.568 302.706 306.271C302.785 305.842 304.592 300.393 302.082 302.658C300.382 304.197 299.909 298.961 299.408 298.341C297.945 296.521 296.471 297.992 293.375 292.948C291.94 290.609 289.554 288.473 286.402 288.135C283.189 287.791 289.424 293.613 289.824 293.985L289.83 293.991Z" fill="#7A9F8E"></path><path fill-rule="evenodd" clip-rule="evenodd" d="M318.751 288.536C317.412 289.691 319.359 289.364 316.416 290.976C314.57 291.985 316.765 292.582 313.748 293.737C309.921 295.208 313.225 296.826 309.308 295.214C308.48 294.876 306.252 296.944 307.895 299.491C308.773 300.849 309.066 303.459 311.576 303.983C313.371 304.36 313.54 303.555 316.708 304.518C319.933 305.499 319.635 302.484 320.789 300.63C321.712 299.147 320.49 299.615 322.511 297.44C323.749 296.11 318.774 294.087 321.802 291.81C323.006 290.903 321.616 290.728 323.743 290.39C324.875 290.209 323.085 289.353 322.314 288.197C320.969 286.174 320.969 287.172 318.746 288.536H318.751Z" fill="#7A9F8E"></path><path fill-rule="evenodd" clip-rule="evenodd" d="M329.98 296.583C328.634 296.64 325.792 296.403 325.168 297.71C324.228 299.683 323.564 298.404 323.733 301.932C323.839 304.203 322.106 303.386 323.721 305.223C324.239 305.809 323.631 310.261 325.781 308.272C326.485 307.618 325.314 305.296 326.71 305.234C327.655 305.189 326.597 307.297 328.68 307.973C329.726 308.311 330.908 309.866 331.156 308.283C331.336 307.156 329.58 306.705 329.096 304.834C328.685 303.245 325.545 302.749 328.916 302.332C330.993 302.078 330.846 300.793 328.032 300.844C325.725 300.883 326.31 298.697 327.689 298.68C330.143 298.652 331.837 299.829 333.266 296.814C333.666 295.969 333.159 295.428 332.141 296.02C331.347 296.482 330.919 296.533 329.98 296.589V296.583Z" fill="#7A9F8E"></path><path fill-rule="evenodd" clip-rule="evenodd" d="M367.969 312.307C368.571 310.768 370.147 311.585 366.764 308.767C362.273 305.031 362.217 304.715 355.947 302.844C349.171 300.821 351.254 304.045 349.318 304.513C347.815 304.879 347.607 301.379 346.836 300.737C345.631 299.739 339.784 300.77 341.495 301.655C343.712 302.799 343.431 302.191 343.954 304.36C344.179 305.307 346.2 304.535 347.438 306.074C348.198 307.02 349.774 306.992 351.349 307.877C353.257 308.948 353.156 308.069 353.871 310.87C354.636 313.851 352.261 312.538 352.627 313.366C353.218 314.707 355.385 313.067 357.073 314.499C358.294 315.536 358.829 315.361 360.45 314.634C362.504 313.716 362.178 310.193 366.416 314.978C367.761 316.5 369.629 318.275 372.094 317.576C373.754 317.103 370.046 315.913 368.988 314.499C368.503 313.851 368.149 313.079 367.98 312.324L367.969 312.307Z" fill="#7A9F8E"></path><path fill-rule="evenodd" clip-rule="evenodd" d="M320.519 314.031C316.275 313.71 323.603 317.379 323.412 314.645C323.305 313.067 321.402 314.025 320.519 314.031Z" fill="#7A9F8E"></path><path fill-rule="evenodd" clip-rule="evenodd" d="M325.112 314.302C325.978 315.316 327.836 315.79 329.091 314.696C330.526 313.445 324.847 313.558 325.033 314.167L325.112 314.302Z" fill="#7A9F8E"></path><path fill-rule="evenodd" clip-rule="evenodd" d="M324.458 315.879C324.503 315.879 326.71 316.916 326.4 317.311C325.438 318.528 323.136 316.308 324.458 315.879Z" fill="#7A9F8E"></path><path fill-rule="evenodd" clip-rule="evenodd" d="M331.482 317.147C332.495 316.939 335 315.716 335.349 314.927C336.351 312.661 333.767 312.402 334.088 313.817C334.201 314.318 332.951 314.448 332.096 315.147C331.556 315.592 329.456 317.226 331.477 317.147H331.482Z" fill="#7A9F8E"></path><path fill-rule="evenodd" clip-rule="evenodd" d="M329.94 317.458C329.94 317.458 328.251 318.01 328.842 318.432C329.428 318.855 331.116 318.19 329.94 317.458Z" fill="#7A9F8E"></path><path fill-rule="evenodd" clip-rule="evenodd" d="M338.044 355.239C333.311 356.124 331.966 358.254 327.587 359.128C325.009 359.646 323.631 360.384 321.458 360.892C314.997 362.402 318.954 355.91 317.603 352.579C316.438 349.705 314.226 347.749 315.059 344.701C316.162 340.677 313.269 338.586 317.102 337.109L319.303 336.264C322.443 335.058 327.694 333.925 328.763 330.713C329.94 327.196 331.082 329.152 333.294 325.568C335.314 322.288 334.752 323.696 337.819 324.891C341.139 326.182 340.306 321.876 342.417 320.946C343.79 320.338 352.103 319.075 350.853 321.837C349.564 324.694 349.446 325.382 352.525 327.703C355.615 330.031 358.293 334.168 358.997 326.571C359.093 325.551 359.188 319.498 359.408 319.278C360.179 318.517 362.081 321.11 362.16 322.744C362.289 325.438 362.126 324.052 364.135 325.393C365.199 326.103 365.706 328.831 366.111 330.161C366.803 332.432 364.861 332.296 368.925 334.077C371.885 335.374 370.275 336.309 371.525 338.896C374.699 343.895 375.211 341.978 376.05 348.009C376.185 348.961 376.365 349.767 376.579 350.708C377.417 353.999 373.438 356.749 372.476 361.185C371.778 364.391 371.812 365.699 368.503 367.97C365.88 369.768 364.338 368.951 361.338 368.691C355.018 368.145 354.827 360.632 352.17 358.835C350.622 357.786 350.217 361.957 347.842 358.671C344.921 354.63 343.413 354.326 338.05 355.234L338.044 355.239Z" fill="#7A9F8E"></path><path fill-rule="evenodd" clip-rule="evenodd" d="M366.308 373.82C364.169 373.882 364.327 371.261 363.151 372.692C361.761 374.383 364.102 374.152 363.95 375.133C363.691 376.733 364.423 376.35 365.644 377.843C366.533 378.925 367.394 378.554 368.497 377.894C369.578 377.252 369.049 376.333 369.308 375.014C369.927 371.892 367.704 373.639 366.308 373.825V373.82Z" fill="#7A9F8E"></path><path fill-rule="evenodd" clip-rule="evenodd" d="M213.564 160.015C213.621 162.658 215.005 160.832 213.784 159.981L213.564 160.015ZM239.487 140.566C240.157 140.831 240.815 141.119 241.468 141.412C235.761 145.638 230.156 144.337 226.368 148.445C221.804 153.399 226.436 156.972 226.149 157.423C225.918 157.789 223.796 157.924 223.56 157.947C219.271 157.609 222.063 155.45 217.313 154.295C215.427 153.838 217.121 152.508 218.112 151.353C220.183 148.941 221.5 150.062 220.538 148.434C219.485 146.659 222.896 145.774 224.196 145.199C230.645 142.342 229.784 143.384 236.065 141.958C237.36 141.665 238.541 141.068 239.476 140.566H239.487ZM257.536 155.242C264.886 170.091 245.363 192.944 218.174 212.629C217.493 212.331 216.795 212.167 216.187 212.223C215.101 212.331 209.85 215.177 209.675 216.422C209.597 216.98 209.698 217.645 209.912 218.344C201.909 223.658 193.456 228.646 184.974 233.042C182.481 232.613 182.74 234.541 180.5 233.459C177.472 231.988 177.877 222.187 173.015 225.935C170.437 227.924 174.163 228.572 173.071 230.624L172.57 231.311C170.279 233.599 168.231 228.905 167.252 227.355C165.586 223.793 170.33 225.388 161.995 220.215C160.656 219.353 157.256 216.084 156.294 216.005C154.403 215.853 157.802 221.708 159.007 222.74C162.119 225.4 164.792 224.836 161.933 229.739C160.751 231.565 158.697 231.897 156.513 231.261C152.427 230.072 165.181 230.951 157.329 224.718C154.56 222.492 154.893 222.227 152.805 220.023C150.39 217.476 148.235 219.736 144.695 220.023C141.47 220.288 140.569 221.094 138.425 223.275C133.18 228.601 138.16 227.958 131.964 231.982C123.815 236.964 137.192 233.554 139.303 233.199C142.139 232.72 151.279 231.159 151.471 235.431L151.42 236.158C150.852 239.669 153.761 238.857 157.054 240.988C157.813 241.478 159.344 242.774 160.96 243.817C142.804 250.625 126.527 253.358 116.813 249.289C118.142 247.993 119.267 246.454 119.976 243.546C121.316 238.035 126.494 238.035 126.342 234.693C126.212 231.802 120.759 232.771 120.432 226.673C119.971 216.326 121.783 220.485 130.49 218.473C136.41 217.11 130.675 212.235 128.767 210.206C133.596 207.687 134.395 208.487 139.224 204.593C144.835 200.073 145.426 199.977 152.613 197.954C158.23 196.37 158.258 194.409 155.264 189.98C151.189 183.95 149.777 189.709 146.203 187.686C143.653 186.243 143.817 181.109 145.938 178.996C147.897 177.051 162.952 166.518 159.356 164.726C157.898 163.999 158.117 163.639 159.873 162.726C162.085 161.576 164.331 161.007 166.7 159.711C175.626 154.825 174.174 155.146 184.558 158.443C186.578 159.085 207.103 165.622 195.223 167.009C193.591 167.2 189.223 167.533 187.929 168.074C187.861 169.68 192.398 173.388 193.911 174.375C195.966 175.316 197.654 172.605 199.207 171.314C201.875 169.1 203.079 169.376 205.449 166.53C207.7 163.83 207.92 166.919 213.306 165.566C217.662 164.473 217.307 164.061 222.406 163.982C225.727 163.932 230.083 164.112 232.334 161.554C233.735 159.959 234.534 160.421 236.876 161.26C242.785 163.374 243.472 164.957 243.455 157.919C243.449 154.949 244.305 149.352 248.863 149.403C252.505 149.443 254.671 154.774 257.536 155.247V155.242ZM168.563 240.779C168.011 240.847 167.617 241.016 167.319 241.303C167.736 241.134 168.146 240.954 168.563 240.779ZM192.156 217.448C193.405 215.796 187.22 215.278 188.841 217.245C189.64 218.214 191.12 217.989 192.156 217.448ZM157.099 186.666C158.281 186.39 158.185 184.135 156.93 185.747C156.665 186.085 156.463 186.564 157.099 186.666ZM185.036 181.735C187.276 184.536 188.593 180.439 185.689 179.92C184.079 179.633 184.625 181.008 185.036 181.735ZM163.779 196.421C170.994 194.116 166.137 192.459 172.643 190.03C174.078 189.495 173.549 186.711 179.577 184.491C186.015 182.118 176.099 182.732 174.039 182.293C164.95 180.365 178.294 169.939 173.876 169.968C171.58 169.984 168.963 173.236 167.06 174.628C162.372 178.06 162.383 177.739 164.635 182.687C166.149 186.007 164.184 185.415 162.524 188.853C161.337 191.315 161.86 190.481 160.245 192.662C158.579 194.911 157.757 197.605 162.147 196.793L163.779 196.41V196.421ZM195.662 212.28C193.129 213.029 192.673 214.85 188.796 214.664C185.008 214.483 185.509 210.961 181.158 218.276C178.333 223.021 180.033 225.123 185.892 223.359C191.925 221.545 193.146 225.197 197.789 224.396C201.532 223.641 200.282 221.314 197.845 219.448C193.09 215.802 196.804 215.543 197.525 212.855C197.851 211.649 196.371 212.122 195.662 212.285V212.28Z" fill="#86A897"></path><path fill-rule="evenodd" clip-rule="evenodd" d="M395.889 325.905C340.696 332.51 386.361 342.198 405.491 335.942C416.24 332.426 421.165 326.728 405.592 325.877C402.452 325.708 399.002 325.607 395.895 325.905H395.889Z" fill="#446C5A"></path><path fill-rule="evenodd" clip-rule="evenodd" d="M412.475 329.146C412.846 329.095 413.19 329.36 413.235 329.738C413.28 330.11 413.021 330.453 412.644 330.498C405.428 331.417 398.377 332.076 391.302 332.533C384.211 332.989 377.125 333.243 369.865 333.356C369.488 333.361 369.179 333.063 369.173 332.685C369.167 332.307 369.466 331.997 369.843 331.992C377.12 331.879 384.188 331.626 391.212 331.175C398.258 330.724 405.282 330.064 412.475 329.152V329.146Z" fill="#30544F"></path><path fill-rule="evenodd" clip-rule="evenodd" d="M416.893 298.612C354.681 314.561 404.444 319.126 425.498 309.421C437.334 303.966 443.682 296.234 424.131 297.637C421.525 297.823 419.42 298.043 416.893 298.606V298.612Z" fill="#446C5A"></path><path fill-rule="evenodd" clip-rule="evenodd" d="M433.299 300.624C433.659 300.528 434.036 300.742 434.132 301.109C434.227 301.475 434.013 301.847 433.648 301.943C425.785 304.05 418.221 305.792 410.601 307.28C402.998 308.767 395.343 310.007 387.284 311.123C386.913 311.174 386.569 310.915 386.513 310.543C386.463 310.171 386.721 309.827 387.093 309.776C395.124 308.66 402.756 307.426 410.342 305.944C417.912 304.462 425.442 302.732 433.293 300.63L433.299 300.624Z" fill="#30544F"></path><path fill-rule="evenodd" clip-rule="evenodd" d="M418.531 276.751C411.237 280.882 381.679 298.77 410.984 293.472C434.498 289.223 450.38 266.709 431.931 271.499C427.586 272.626 422.533 274.638 418.531 276.751Z" fill="#446C5A"></path><path fill-rule="evenodd" clip-rule="evenodd" d="M436.985 273.409C437.311 273.218 437.727 273.325 437.919 273.652C438.11 273.979 438.003 274.396 437.677 274.587C431.047 278.521 424.946 281.745 418.682 284.653C412.43 287.555 406.031 290.13 398.804 292.768C398.45 292.897 398.061 292.711 397.932 292.356C397.802 292.001 397.988 291.613 398.343 291.483C405.53 288.857 411.895 286.298 418.114 283.413C424.322 280.533 430.383 277.326 436.985 273.415V273.409Z" fill="#30544F"></path><path fill-rule="evenodd" clip-rule="evenodd" d="M422.724 250.033C390.402 279.507 428.223 268.625 437.52 255.291C442.456 248.212 444.555 237.984 431.419 244.42C428.037 246.076 425.594 247.654 422.724 250.033Z" fill="#446C5A"></path><path fill-rule="evenodd" clip-rule="evenodd" d="M438.499 245C438.78 244.746 439.208 244.775 439.461 245.056C439.715 245.338 439.687 245.772 439.405 246.02C434.458 250.444 430.018 254.096 425.38 257.489C420.737 260.881 415.914 264.003 410.196 267.373C409.869 267.565 409.453 267.458 409.262 267.131C409.07 266.804 409.183 266.387 409.504 266.196C415.199 262.837 419.989 259.743 424.575 256.39C429.162 253.036 433.569 249.413 438.499 245Z" fill="#30544F"></path><path fill-rule="evenodd" clip-rule="evenodd" d="M407.348 217.357C407.669 221.742 410.376 258.509 419.42 240.616C430.822 218.039 408.823 173.743 407.309 213.649L407.348 217.357Z" fill="#446C5A"></path><path fill-rule="evenodd" clip-rule="evenodd" d="M413.021 201.178C412.982 200.8 413.258 200.468 413.629 200.428C414.006 200.389 414.338 200.665 414.378 201.042C415.104 208.476 415.588 215.193 415.751 221.922C415.914 228.668 415.762 235.408 415.205 242.881C415.177 243.259 414.85 243.541 414.473 243.512C414.096 243.484 413.815 243.157 413.843 242.78C414.4 235.335 414.552 228.634 414.389 221.956C414.226 215.267 413.742 208.583 413.021 201.178Z" fill="#30544F"></path><path fill-rule="evenodd" clip-rule="evenodd" d="M342.22 301.689C370.642 314.065 385.539 352.483 347.201 321.91C342.67 318.297 331.116 307.866 332.112 300.483C332.579 297.023 340.47 300.957 342.22 301.689Z" fill="#446C5A"></path><path fill-rule="evenodd" clip-rule="evenodd" d="M335.439 302.636C335.152 302.393 335.118 301.959 335.36 301.672C335.602 301.385 336.036 301.351 336.323 301.593C342.097 306.513 347.742 311.45 353.325 316.488C358.919 321.543 364.44 326.694 369.928 332.037C370.198 332.302 370.203 332.736 369.939 333.006C369.674 333.277 369.247 333.282 368.976 333.017C363.467 327.658 357.968 322.518 352.413 317.502C346.842 312.47 341.202 307.55 335.445 302.636H335.439Z" fill="#30544F"></path><path fill-rule="evenodd" clip-rule="evenodd" d="M357.894 278.532C368.965 282.731 384.329 294.081 387.261 305.64C391.178 321.053 362.335 301.238 359.127 298.584C354.788 294.994 344.027 283.92 346.374 277.687C347.46 274.796 355.694 277.901 357.894 278.532Z" fill="#446C5A"></path><path fill-rule="evenodd" clip-rule="evenodd" d="M349.954 280.313C349.655 280.082 349.599 279.653 349.83 279.355C350.06 279.056 350.488 279 350.786 279.231C357.129 284.145 363.219 289.026 369.196 294.052C375.167 299.074 381.014 304.247 386.884 309.748C387.16 310.007 387.171 310.435 386.913 310.711C386.654 310.988 386.226 310.999 385.95 310.74C380.103 305.256 374.272 300.105 368.318 295.095C362.369 290.091 356.291 285.221 349.954 280.307V280.313Z" fill="#30544F"></path><path fill-rule="evenodd" clip-rule="evenodd" d="M377.007 256.435C408.913 276.131 406.476 314.995 376.118 276.036C373.208 272.299 363.45 257.528 367.665 253.527C369.246 252.022 375.409 255.646 377.007 256.435Z" fill="#446C5A"></path><path fill-rule="evenodd" clip-rule="evenodd" d="M370.028 257.32C369.775 257.038 369.798 256.61 370.073 256.356C370.355 256.103 370.782 256.125 371.036 256.401C376.32 262.223 381.087 267.734 385.64 273.46C390.193 279.186 394.493 285.081 398.844 291.663C399.052 291.979 398.967 292.402 398.652 292.61C398.337 292.819 397.915 292.734 397.707 292.419C393.351 285.83 389.073 279.969 384.577 274.311C380.08 268.653 375.33 263.158 370.028 257.32Z" fill="#30544F"></path><path fill-rule="evenodd" clip-rule="evenodd" d="M386.772 230.573C395.169 236.502 410.99 253.071 410.404 264.088C409.74 276.633 387.679 249.7 385.129 245.992C382.917 242.769 370.654 221.703 382.737 228.279C384.11 229.029 385.416 229.784 386.767 230.573H386.772Z" fill="#446C5A"></path><path fill-rule="evenodd" clip-rule="evenodd" d="M380.401 231.063C380.153 230.781 380.176 230.353 380.457 230.099C380.739 229.851 381.166 229.874 381.42 230.156C386.721 236.118 391.612 241.844 396.294 247.722C400.982 253.606 405.468 259.658 409.959 266.286C410.173 266.596 410.089 267.018 409.779 267.232C409.469 267.441 409.047 267.362 408.833 267.052C404.37 260.47 399.902 254.445 395.231 248.579C390.554 242.701 385.674 237.003 380.401 231.069V231.063Z" fill="#30544F"></path><path fill-rule="evenodd" clip-rule="evenodd" d="M414.101 239.652C414.141 239.28 414.478 239.009 414.855 239.049C415.227 239.088 415.497 239.426 415.458 239.804C413.268 258.892 408.575 273.871 401.59 287.51C394.617 301.125 385.359 313.394 374.024 327.072C373.844 327.291 373.535 327.618 373.101 328.086C368.329 333.198 347.955 354.991 346.965 382.414C346.954 382.791 346.638 383.084 346.261 383.073C345.884 383.062 345.592 382.746 345.603 382.369C346.616 354.427 367.265 332.33 372.105 327.151C372.55 326.672 372.865 326.339 372.977 326.198C384.256 312.594 393.458 300.398 400.38 286.884C407.291 273.387 411.934 258.559 414.101 239.652Z" fill="#30544F"></path><path fill-rule="evenodd" clip-rule="evenodd" d="M380.159 348.217C324.965 354.822 370.631 364.51 389.76 358.254C400.51 354.737 405.434 349.04 389.862 348.189C386.721 348.02 383.271 347.918 380.164 348.217H380.159Z" fill="#446C5A"></path><path fill-rule="evenodd" clip-rule="evenodd" d="M396.745 351.457C397.117 351.407 397.46 351.672 397.505 352.049C397.55 352.421 397.291 352.765 396.914 352.81C389.699 353.729 382.647 354.388 375.573 354.844C368.481 355.301 361.396 355.555 354.136 355.667C353.759 355.673 353.449 355.374 353.443 354.997C353.438 354.619 353.736 354.309 354.113 354.303C361.39 354.191 368.459 353.937 375.483 353.486C382.529 353.03 389.553 352.376 396.745 351.463V351.457Z" fill="#30544F"></path><path fill-rule="evenodd" clip-rule="evenodd" d="M326.49 324.001C354.912 336.377 369.809 374.795 331.466 344.221C326.935 340.609 315.381 330.177 316.377 322.795C316.844 319.334 324.735 323.268 326.49 324.001Z" fill="#446C5A"></path><path fill-rule="evenodd" clip-rule="evenodd" d="M319.709 324.942C319.422 324.7 319.388 324.266 319.63 323.978C319.872 323.691 320.305 323.657 320.592 323.899C326.367 328.819 332.012 333.75 337.595 338.794C343.189 343.849 348.704 349 354.197 354.343C354.467 354.608 354.473 355.042 354.208 355.312C353.944 355.583 353.516 355.588 353.246 355.324C347.736 349.964 342.238 344.824 336.683 339.809C331.111 334.776 325.472 329.856 319.714 324.942H319.709Z" fill="#30544F"></path><path fill-rule="evenodd" clip-rule="evenodd" d="M404.179 379.602C403.205 423.458 392.141 388.326 395.585 372.822C397.521 364.109 401.613 359.809 403.464 371.977C403.836 374.428 404.179 377.133 404.179 379.596V379.602Z" fill="#446C5A"></path><path fill-rule="evenodd" clip-rule="evenodd" d="M400.38 366.82C400.386 366.521 400.155 366.273 399.857 366.267C399.558 366.256 399.316 366.493 399.305 366.786C399.131 372.523 399.153 378.114 399.333 383.704C399.513 389.306 399.857 394.891 400.318 400.605C400.341 400.904 400.6 401.124 400.898 401.101C401.196 401.079 401.416 400.82 401.393 400.521C400.926 394.795 400.588 389.227 400.408 383.676C400.228 378.108 400.206 372.54 400.38 366.825V366.82Z" fill="#30544F"></path><path fill-rule="evenodd" clip-rule="evenodd" d="M423.968 361.027C416.207 411.105 408.845 372.365 414.845 355.092C418.221 345.382 423.793 339.808 424.176 355.267C424.227 357.33 424.215 358.998 423.968 361.027Z" fill="#446C5A"></path><path fill-rule="evenodd" clip-rule="evenodd" d="M421.136 348.296C421.187 348.003 420.984 347.726 420.691 347.676C420.399 347.625 420.123 347.828 420.072 348.121C419.02 354.461 418.232 360.531 417.647 366.628C417.061 372.715 416.673 378.818 416.409 385.237C416.397 385.536 416.628 385.784 416.921 385.795C417.219 385.806 417.467 385.575 417.478 385.282C417.742 378.886 418.125 372.799 418.716 366.73C419.301 360.672 420.084 354.624 421.136 348.301V348.296Z" fill="#30544F"></path><path fill-rule="evenodd" clip-rule="evenodd" d="M440.964 358.073C438.28 364.115 426.523 388.692 428.442 365.27C429.984 346.481 446.407 332.29 444.06 347.146C443.508 350.64 442.315 354.765 440.964 358.073Z" fill="#446C5A"></path><path fill-rule="evenodd" clip-rule="evenodd" d="M442.18 343.33C442.304 343.06 442.191 342.739 441.921 342.615C441.651 342.491 441.33 342.603 441.206 342.874C438.628 348.38 436.569 353.418 434.768 358.558C432.972 363.686 431.442 368.911 429.922 374.789C429.849 375.076 430.023 375.369 430.31 375.442C430.597 375.516 430.89 375.341 430.963 375.053C432.471 369.209 433.997 364.013 435.781 358.913C437.565 353.818 439.613 348.814 442.18 343.33Z" fill="#30544F"></path><path fill-rule="evenodd" clip-rule="evenodd" d="M461.574 352.753C440.947 380.385 446.592 349.851 456.328 341.533C461.495 337.12 469.352 334.691 465.305 345.495C464.264 348.279 463.217 350.319 461.568 352.753H461.574Z" fill="#446C5A"></path><path fill-rule="evenodd" clip-rule="evenodd" d="M464.315 339.977C464.489 339.74 464.438 339.402 464.196 339.228C463.96 339.053 463.622 339.104 463.448 339.346C460.358 343.567 457.837 347.332 455.529 351.237C453.227 355.143 451.145 359.166 448.939 363.917C448.815 364.188 448.933 364.509 449.198 364.633C449.468 364.757 449.789 364.639 449.913 364.368C452.107 359.64 454.173 355.639 456.447 351.784C458.726 347.923 461.23 344.187 464.309 339.983L464.315 339.977Z" fill="#30544F"></path><path fill-rule="evenodd" clip-rule="evenodd" d="M488.341 362.345C484.885 362.429 455.873 363.094 469.205 354.63C486.022 343.956 522.39 357.87 491.25 362.091L488.341 362.339V362.345Z" fill="#446C5A"></path><path fill-rule="evenodd" clip-rule="evenodd" d="M500.581 356.659C500.88 356.659 501.122 356.422 501.122 356.124C501.122 355.825 500.885 355.583 500.587 355.583C494.711 355.583 489.416 355.712 484.125 356.095C478.829 356.479 473.561 357.115 467.748 358.119C467.455 358.169 467.258 358.445 467.309 358.738C467.359 359.032 467.635 359.229 467.928 359.178C473.719 358.175 478.953 357.544 484.198 357.166C489.449 356.783 494.723 356.659 500.581 356.659Z" fill="#30544F"></path><path fill-rule="evenodd" clip-rule="evenodd" d="M427.237 419.913C415.379 398.531 384.155 389.751 411.017 417.54C414.191 420.826 423.241 429.105 428.948 427.763C431.627 427.132 427.941 421.237 427.237 419.913Z" fill="#446C5A"></path><path fill-rule="evenodd" clip-rule="evenodd" d="M427.012 425.307C427.226 425.515 427.563 425.509 427.771 425.295C427.98 425.081 427.974 424.743 427.76 424.534C423.466 420.375 419.172 416.312 414.799 412.311C410.415 408.298 405.957 404.359 401.354 400.453C401.128 400.262 400.785 400.29 400.594 400.515C400.402 400.741 400.431 401.085 400.656 401.276C405.276 405.193 409.717 409.127 414.067 413.105C418.435 417.101 422.718 421.153 427.006 425.301L427.012 425.307Z" fill="#30544F"></path><path fill-rule="evenodd" clip-rule="evenodd" d="M444.183 405.841C440.052 397.466 429.995 386.263 420.714 384.837C408.344 382.932 426.055 404.077 428.38 406.399C431.52 409.532 441.014 417.146 445.719 414.83C447.898 413.753 444.842 407.526 444.183 405.847V405.841Z" fill="#446C5A"></path><path fill-rule="evenodd" clip-rule="evenodd" d="M443.389 412.215C443.592 412.429 443.929 412.44 444.149 412.237C444.363 412.035 444.374 411.696 444.171 411.477C439.838 406.867 435.555 402.454 431.159 398.143C426.77 393.837 422.273 389.633 417.517 385.44C417.292 385.243 416.954 385.265 416.763 385.491C416.566 385.716 416.589 386.054 416.814 386.252C421.552 390.428 426.032 394.615 430.411 398.909C434.784 403.204 439.061 407.605 443.389 412.209V412.215Z" fill="#30544F"></path><path fill-rule="evenodd" clip-rule="evenodd" d="M460.038 389.148C442.186 365.586 411.924 370.455 444.752 391.335C447.898 393.335 460.212 399.878 463.026 396.266C464.084 394.908 460.775 390.343 460.038 389.148Z" fill="#446C5A"></path><path fill-rule="evenodd" clip-rule="evenodd" d="M459.874 394.694C460.11 394.874 460.448 394.823 460.628 394.587C460.808 394.35 460.757 394.012 460.521 393.832C455.563 390.123 450.88 386.798 446.046 383.659C441.211 380.52 436.27 377.59 430.783 374.67C430.518 374.53 430.192 374.631 430.057 374.896C429.916 375.161 430.017 375.488 430.282 375.623C435.775 378.542 440.694 381.456 445.466 384.561C450.239 387.661 454.904 390.974 459.879 394.694H459.874Z" fill="#30544F"></path><path fill-rule="evenodd" clip-rule="evenodd" d="M479.549 379.506C474.264 373.363 460.087 362.199 451.499 363.489C441.723 364.96 464.494 380.244 467.595 381.963C470.291 383.456 487.721 391.487 481.654 382.492C480.962 381.472 480.269 380.503 479.549 379.5V379.506Z" fill="#446C5A"></path><path fill-rule="evenodd" clip-rule="evenodd" d="M479.651 384.549C479.893 384.724 480.225 384.668 480.4 384.431C480.574 384.194 480.518 383.856 480.281 383.682C475.205 379.973 470.354 376.564 465.39 373.335C460.426 370.1 455.338 367.04 449.811 364.013C449.553 363.872 449.226 363.968 449.085 364.227C448.945 364.487 449.04 364.813 449.299 364.954C454.792 367.958 459.857 371.007 464.804 374.231C469.763 377.46 474.603 380.852 479.651 384.544V384.549Z" fill="#30544F"></path><path fill-rule="evenodd" clip-rule="evenodd" d="M470.359 358.733C470.652 358.671 470.837 358.383 470.775 358.096C470.714 357.803 470.432 357.617 470.139 357.679C455.355 360.852 443.975 365.676 433.828 372.196C423.692 378.711 414.788 386.911 404.933 396.858C404.776 397.016 404.54 397.28 404.207 397.658C400.566 401.8 385.044 419.457 363.635 422.32C363.343 422.359 363.134 422.63 363.174 422.923C363.213 423.216 363.483 423.424 363.776 423.385C385.584 420.465 401.32 402.561 405.012 398.368C405.35 397.985 405.586 397.714 405.693 397.607C415.492 387.711 424.344 379.556 434.402 373.092C444.448 366.64 455.715 361.866 470.359 358.721V358.733Z" fill="#30544F"></path><path fill-rule="evenodd" clip-rule="evenodd" d="M387.903 393.651C386.929 437.507 375.864 402.375 379.309 386.871C381.245 378.159 385.336 373.859 387.188 386.026C387.559 388.477 387.903 391.183 387.903 393.645V393.651Z" fill="#446C5A"></path><path fill-rule="evenodd" clip-rule="evenodd" d="M384.105 380.87C384.116 380.571 383.879 380.323 383.587 380.317C383.289 380.306 383.041 380.543 383.035 380.836C382.866 386.573 382.883 392.163 383.063 397.754C383.244 403.356 383.587 408.941 384.048 414.655C384.071 414.954 384.33 415.174 384.628 415.151C384.926 415.129 385.146 414.869 385.123 414.571C384.656 408.845 384.318 403.277 384.138 397.726C383.958 392.158 383.936 386.59 384.11 380.875L384.105 380.87Z" fill="#30544F"></path><path fill-rule="evenodd" clip-rule="evenodd" d="M410.956 433.963C399.098 412.581 367.874 403.801 394.736 431.59C397.91 434.876 406.96 443.155 412.667 441.813C415.34 441.182 411.659 435.282 410.956 433.963Z" fill="#446C5A"></path><path fill-rule="evenodd" clip-rule="evenodd" d="M410.73 439.362C410.944 439.57 411.282 439.565 411.49 439.351C411.698 439.137 411.693 438.798 411.479 438.59C407.185 434.431 402.891 430.367 398.518 426.372C394.133 422.359 389.676 418.42 385.072 414.514C384.847 414.323 384.504 414.351 384.313 414.576C384.121 414.802 384.149 415.146 384.375 415.337C388.995 419.254 393.436 423.188 397.786 427.166C402.153 431.156 406.436 435.214 410.719 439.362H410.73Z" fill="#30544F"></path><path fill-rule="evenodd" clip-rule="evenodd" d="M85.7748 375.73C70.8606 416.977 93.851 388.219 96.2316 372.518C97.5711 363.692 95.3086 358.203 89.191 368.883C87.9585 371.036 86.664 373.437 85.7748 375.73Z" fill="#446C5A"></path><path fill-rule="evenodd" clip-rule="evenodd" d="M93.9306 365.18C94.0262 364.899 94.3358 364.752 94.6172 364.853C94.8986 364.955 95.0449 365.259 94.9436 365.541C93.0357 370.951 90.9984 376.159 88.8147 381.304C86.6254 386.46 84.2954 391.549 81.7966 396.706C81.6671 396.971 81.3463 397.084 81.0818 396.96C80.8117 396.83 80.7047 396.509 80.8286 396.238C83.3274 391.07 85.6518 385.998 87.8242 380.887C90.0022 375.764 92.0283 370.574 93.9306 365.18Z" fill="#30544F"></path><path fill-rule="evenodd" clip-rule="evenodd" d="M74.0297 351.249C63.2014 400.752 84.0419 367.294 84.6779 349.012C85.0324 338.738 81.847 331.524 75.9094 345.799C75.1159 347.704 74.5249 349.265 74.0297 351.249Z" fill="#446C5A"></path><path fill-rule="evenodd" clip-rule="evenodd" d="M81.2556 340.406C81.3175 340.113 81.599 339.927 81.8916 339.989C82.1843 340.051 82.37 340.333 82.3081 340.626C81.0024 346.915 79.5447 352.866 77.8957 358.761C76.2467 364.645 74.4064 370.483 72.3353 376.559C72.2396 376.84 71.9357 376.987 71.6543 376.891C71.3729 376.795 71.2265 376.491 71.3222 376.209C73.3821 370.151 75.2168 364.335 76.8658 358.463C78.5092 352.601 79.9556 346.678 81.2613 340.4L81.2556 340.406Z" fill="#30544F"></path><path fill-rule="evenodd" clip-rule="evenodd" d="M59.2451 342.35C59.5659 348.955 61.6652 376.124 68.3231 353.593C73.6641 335.514 63.4661 316.342 60.2976 331.045C59.549 334.505 59.1776 338.783 59.2451 342.356V342.35Z" fill="#446C5A"></path><path fill-rule="evenodd" clip-rule="evenodd" d="M63.4267 328.16C63.4041 327.861 63.6293 327.608 63.9275 327.585C64.2258 327.563 64.4791 327.788 64.5016 328.087C64.9181 334.151 65.025 339.6 64.8449 345.039C64.6704 350.471 64.2146 355.898 63.5054 361.923C63.4717 362.216 63.2015 362.43 62.9089 362.391C62.6162 362.357 62.4024 362.086 62.4361 361.793C63.1396 355.797 63.5899 350.404 63.77 344.999C63.9444 339.606 63.8375 334.196 63.4267 328.154V328.16Z" fill="#30544F"></path><path fill-rule="evenodd" clip-rule="evenodd" d="M41.944 329.929C51.2133 363.157 56.9595 332.64 50.8813 321.363C47.6564 315.378 41.2067 310.272 41.0773 321.808C41.0435 324.784 41.2855 327.061 41.944 329.929Z" fill="#446C5A"></path><path fill-rule="evenodd" clip-rule="evenodd" d="M43.9989 317.029C43.9201 316.742 44.0889 316.449 44.3759 316.37C44.6629 316.291 44.9556 316.466 45.0344 316.748C46.3908 321.803 47.3869 326.227 48.1242 330.696C48.8671 335.171 49.3511 339.679 49.6944 344.903C49.7113 345.202 49.4861 345.456 49.1935 345.472C48.8952 345.495 48.642 345.27 48.6251 344.971C48.2818 339.769 47.8034 335.295 47.0717 330.871C46.3401 326.447 45.3552 322.062 43.9989 317.024V317.029Z" fill="#30544F"></path><path fill-rule="evenodd" clip-rule="evenodd" d="M13.5285 329.191C16.7196 330.515 43.5314 341.634 34.1551 328.92C22.3251 312.881 -16.6094 312.701 10.9058 327.906L13.5285 329.191Z" fill="#446C5A"></path><path fill-rule="evenodd" clip-rule="evenodd" d="M4.16376 319.464C3.88799 319.357 3.74728 319.047 3.85422 318.771C3.96115 318.495 4.27069 318.354 4.54647 318.461C10.0281 320.585 14.9189 322.62 19.7139 324.891C24.5146 327.162 29.1971 329.664 34.2567 332.702C34.5099 332.854 34.5944 333.187 34.4424 333.44C34.2904 333.694 33.9584 333.778 33.7051 333.626C28.6681 330.594 24.0137 328.115 19.258 325.86C14.4968 323.606 9.62855 321.577 4.16376 319.464Z" fill="#30544F"></path><path fill-rule="evenodd" clip-rule="evenodd" d="M49.7332 404.979C68.5026 389.329 100.785 392.44 65.7111 408.636C61.5689 410.547 50.1385 414.999 45.304 411.68C43.0359 410.124 48.5964 405.954 49.7332 404.979Z" fill="#446C5A"></path><path fill-rule="evenodd" clip-rule="evenodd" d="M47.9998 410.091C47.724 410.209 47.4145 410.079 47.2963 409.803C47.1837 409.527 47.3076 409.217 47.5833 409.099C53.0875 406.771 58.5579 404.539 64.079 402.392C69.617 400.239 75.1887 398.177 80.8898 396.199C81.1712 396.103 81.4751 396.249 81.5765 396.531C81.6721 396.813 81.5258 397.117 81.2444 397.219C75.5264 399.203 69.9603 401.26 64.4673 403.395C58.9575 405.543 53.4984 407.769 48.0054 410.091H47.9998Z" fill="#30544F"></path><path fill-rule="evenodd" clip-rule="evenodd" d="M39.0066 385.722C45.8784 379.405 59.3011 372.597 68.4692 374.626C80.6932 377.325 56.5434 390.637 53.5381 391.955C49.4747 393.742 37.881 397.405 34.3297 393.544C32.6807 391.752 37.7853 387.052 39.0066 385.722Z" fill="#446C5A"></path><path fill-rule="evenodd" clip-rule="evenodd" d="M37.4471 391.955C37.1826 392.085 36.8618 391.972 36.7324 391.702C36.6029 391.437 36.7155 391.116 36.9856 390.986C42.6868 388.258 48.2754 385.694 53.9259 383.259C59.5708 380.831 65.2776 378.537 71.2264 376.35C71.5022 376.249 71.8117 376.39 71.913 376.671C72.0143 376.953 71.868 377.258 71.5922 377.359C65.6659 379.54 59.976 381.822 54.348 384.246C48.72 386.663 43.1483 389.222 37.4471 391.95V391.955Z" fill="#30544F"></path><path fill-rule="evenodd" clip-rule="evenodd" d="M30.2495 364.425C55.3954 348.916 81.8583 364.402 43.7117 371.994C40.0535 372.721 26.2143 374.366 24.8917 369.976C24.3964 368.325 29.124 365.265 30.2439 364.419L30.2495 364.425Z" fill="#446C5A"></path><path fill-rule="evenodd" clip-rule="evenodd" d="M28.3974 369.655C28.1103 369.734 27.812 369.565 27.7333 369.277C27.6545 368.99 27.8233 368.691 28.1047 368.612C34.0704 366.95 39.6308 365.541 45.2701 364.363C50.9094 363.185 56.5768 362.238 62.7451 361.5C63.0377 361.466 63.3079 361.675 63.3416 361.974C63.3754 362.272 63.1672 362.537 62.8689 362.571C56.695 363.309 51.0557 364.245 45.484 365.411C39.9122 366.578 34.3687 367.976 28.3861 369.649L28.3974 369.655Z" fill="#30544F"></path><path fill-rule="evenodd" clip-rule="evenodd" d="M15.5261 348.375C22.668 344.554 39.9178 339.273 47.4594 343.59C56.0421 348.499 29.2922 354.512 25.7859 354.996C22.7355 355.413 3.58345 356.597 12.4869 350.409C13.5 349.705 14.4961 349.056 15.5261 348.38V348.375Z" fill="#446C5A"></path><path fill-rule="evenodd" clip-rule="evenodd" d="M13.6189 353.041C13.3319 353.114 13.0392 352.945 12.9604 352.658C12.8872 352.37 13.0561 352.077 13.3431 351.999C19.4157 350.375 25.1732 348.955 30.9588 347.738C36.7556 346.521 42.6031 345.501 48.8502 344.684C49.1428 344.644 49.413 344.853 49.4524 345.146C49.4917 345.439 49.2835 345.709 48.9909 345.749C42.7832 346.56 36.9638 347.58 31.1839 348.792C25.3927 350.009 19.6577 351.424 13.6189 353.041Z" fill="#30544F"></path><path fill-rule="evenodd" clip-rule="evenodd" d="M31.5945 332.33C31.3468 332.166 31.2737 331.834 31.4369 331.586C31.6001 331.338 31.9321 331.265 32.1798 331.428C44.8203 339.735 53.69 348.346 60.8038 358.102C67.9063 367.84 73.2473 378.711 78.8471 391.549C78.9372 391.758 79.061 392.085 79.2355 392.558C81.1377 397.731 89.242 419.812 108.169 430.232C108.428 430.373 108.524 430.706 108.383 430.965C108.242 431.224 107.916 431.32 107.651 431.179C88.3697 420.567 80.1528 398.182 78.228 392.936C78.0536 392.456 77.9298 392.113 77.8679 391.983C72.2961 379.213 66.9889 368.404 59.937 358.738C52.8964 349.085 44.1167 340.558 31.5945 332.33Z" fill="#30544F"></path><path fill-rule="evenodd" clip-rule="evenodd" d="M95.8832 394.717C80.969 435.964 103.959 407.205 106.34 391.504C107.68 382.679 105.417 377.19 99.2994 387.869C98.0669 390.022 96.7724 392.417 95.8832 394.717Z" fill="#446C5A"></path><path fill-rule="evenodd" clip-rule="evenodd" d="M104.038 384.172C104.139 383.89 104.443 383.744 104.725 383.845C105.006 383.941 105.152 384.251 105.051 384.533C103.143 389.943 101.106 395.15 98.9221 400.296C96.7328 405.458 94.4028 410.541 91.904 415.698C91.7746 415.963 91.4537 416.075 91.1892 415.946C90.9191 415.816 90.8122 415.495 90.936 415.23C93.4348 410.062 95.7592 404.99 97.9316 399.879C100.11 394.75 102.136 389.565 104.038 384.172Z" fill="#30544F"></path><path fill-rule="evenodd" clip-rule="evenodd" d="M59.8465 423.971C78.6159 408.321 110.898 411.432 75.8244 427.623C71.6766 429.539 60.2517 433.986 55.4173 430.666C53.1492 429.111 58.7097 424.94 59.8465 423.965V423.971Z" fill="#446C5A"></path><path fill-rule="evenodd" clip-rule="evenodd" d="M58.1082 429.083C57.8324 429.201 57.5173 429.071 57.4047 428.795C57.2921 428.519 57.416 428.204 57.6917 428.091C63.1959 425.763 68.6663 423.532 74.1874 421.384C79.7254 419.232 85.2971 417.169 90.9982 415.191C91.2796 415.095 91.5835 415.242 91.6848 415.523C91.7805 415.805 91.6342 416.11 91.3528 416.211C85.6348 418.195 80.0687 420.252 74.5757 422.388C69.0659 424.529 63.6068 426.761 58.1138 429.083H58.1082Z" fill="#30544F"></path><path fill-rule="evenodd" clip-rule="evenodd" d="M121.648 328.064C177.151 324.981 133.855 342.451 113.932 339.617C102.738 338.022 96.9017 333.265 112.092 329.72C115.153 329.005 118.536 328.312 121.648 328.064Z" fill="#446C5A"></path><path fill-rule="evenodd" clip-rule="evenodd" d="M105.873 334.133C105.495 334.15 105.208 334.471 105.225 334.849C105.242 335.226 105.563 335.514 105.94 335.497C113.206 335.148 120.269 334.573 127.31 333.795C134.373 333.012 141.391 332.037 148.567 330.881C148.938 330.825 149.191 330.47 149.135 330.098C149.079 329.726 148.724 329.472 148.353 329.529C141.166 330.684 134.165 331.659 127.169 332.431C120.151 333.209 113.116 333.784 105.878 334.127L105.873 334.133Z" fill="#30544F"></path><path fill-rule="evenodd" clip-rule="evenodd" d="M96.2313 304.828C160.267 309.736 112.04 322.873 89.6297 316.967C77.0286 313.648 69.442 307.138 88.9374 305.126C91.5376 304.862 93.6481 304.709 96.2369 304.828H96.2313Z" fill="#446C5A"></path><path fill-rule="evenodd" clip-rule="evenodd" d="M80.4285 309.658C80.0514 309.624 79.725 309.905 79.6912 310.277C79.6575 310.655 79.9389 310.982 80.3103 311.016C88.4203 311.726 96.17 312.126 103.931 312.272C111.675 312.419 119.431 312.312 127.563 312.013C127.94 312.002 128.233 311.686 128.216 311.309C128.205 310.931 127.889 310.638 127.512 310.655C119.408 310.954 111.681 311.061 103.954 310.914C96.2376 310.768 88.5216 310.373 80.4341 309.663L80.4285 309.658Z" fill="#30544F"></path><path fill-rule="evenodd" clip-rule="evenodd" d="M90.8345 283.582C98.7306 286.383 130.94 298.866 101.162 298.736C77.2654 298.635 57.725 279.22 76.7251 280.736C81.1994 281.091 86.5235 282.195 90.8345 283.582Z" fill="#446C5A"></path><path fill-rule="evenodd" clip-rule="evenodd" d="M72.0821 283.491C71.7275 283.356 71.3335 283.536 71.2041 283.891C71.069 284.246 71.2491 284.641 71.6037 284.771C78.8131 287.493 85.381 289.612 92.0558 291.381C98.7137 293.151 105.467 294.577 113.037 295.923C113.408 295.991 113.763 295.737 113.825 295.366C113.887 294.994 113.639 294.639 113.268 294.577C105.732 293.241 99.0177 291.821 92.3991 290.062C85.7862 288.304 79.2578 286.202 72.0821 283.491Z" fill="#30544F"></path><path fill-rule="evenodd" clip-rule="evenodd" d="M82.0828 258.001C119.019 281.417 79.8879 277.264 68.4237 265.75C62.3398 259.636 58.4959 249.925 72.549 253.983C76.1678 255.031 78.8467 256.158 82.0828 258.001Z" fill="#446C5A"></path><path fill-rule="evenodd" clip-rule="evenodd" d="M65.6719 255.781C65.3511 255.584 64.929 255.68 64.7321 256.001C64.5351 256.322 64.6307 256.745 64.9515 256.942C70.5908 260.442 75.5941 263.265 80.7493 265.801C85.9102 268.337 91.2005 270.575 97.4138 272.902C97.7684 273.032 98.1624 272.851 98.2918 272.502C98.4213 272.147 98.2412 271.752 97.8922 271.623C91.7014 269.307 86.4449 267.086 81.3515 264.578C76.2526 262.07 71.2887 259.269 65.6719 255.781Z" fill="#30544F"></path><path fill-rule="evenodd" clip-rule="evenodd" d="M91.566 223.145C92.0106 227.518 95.7082 264.201 83.7037 248.145C68.5644 227.89 82.5612 180.444 90.9638 219.488L91.566 223.145Z" fill="#446C5A"></path><path fill-rule="evenodd" clip-rule="evenodd" d="M83.1803 208.194C83.1522 207.816 82.8258 207.534 82.4487 207.562C82.0716 207.591 81.7902 207.918 81.8183 208.295C82.3924 215.74 83.079 222.441 84.0808 229.102C85.0882 235.774 86.4052 242.385 88.2511 249.649C88.3412 250.016 88.7126 250.236 89.0785 250.145C89.4443 250.05 89.6638 249.678 89.5737 249.317C87.739 242.081 86.4221 235.51 85.4315 228.905C84.4354 222.288 83.7544 215.621 83.1803 208.199V208.194Z" fill="#30544F"></path><path fill-rule="evenodd" clip-rule="evenodd" d="M170.312 294.892C144.463 312.019 136.443 352.438 168.911 315.671C172.744 311.326 182.323 299.046 180.06 291.951C179.002 288.626 171.911 293.867 170.312 294.892Z" fill="#446C5A"></path><path fill-rule="evenodd" clip-rule="evenodd" d="M177.151 294.644C177.393 294.351 177.348 293.923 177.061 293.686C176.774 293.444 176.34 293.489 176.098 293.776C171.264 299.626 166.553 305.465 161.933 311.399C157.295 317.35 152.759 323.38 148.273 329.596C148.054 329.901 148.121 330.329 148.425 330.549C148.729 330.769 149.157 330.701 149.376 330.391C153.873 324.158 158.398 318.139 163.002 312.233C167.617 306.31 172.316 300.483 177.139 294.644H177.151Z" fill="#30544F"></path><path fill-rule="evenodd" clip-rule="evenodd" d="M150.862 274.807C140.687 280.865 127.523 294.707 126.634 306.603C125.446 322.462 150.418 297.941 153.119 294.769C156.772 290.48 165.456 277.704 162.062 271.972C160.486 269.318 152.922 273.804 150.862 274.802V274.807Z" fill="#446C5A"></path><path fill-rule="evenodd" clip-rule="evenodd" d="M158.995 275.185C159.248 274.908 159.226 274.474 158.95 274.221C158.674 273.967 158.241 273.99 157.988 274.266C152.59 280.212 147.441 286.073 142.426 292.058C137.417 298.043 132.549 304.152 127.72 310.588C127.495 310.886 127.557 311.315 127.861 311.54C128.165 311.765 128.587 311.703 128.812 311.399C133.618 304.986 138.47 298.894 143.467 292.926C148.459 286.963 153.603 281.113 158.995 275.173V275.185Z" fill="#30544F"></path><path fill-rule="evenodd" clip-rule="evenodd" d="M128.216 256.361C100.205 281.299 109.334 319.148 132.482 275.511C134.699 271.33 141.751 255.088 136.911 251.875C135.088 250.669 129.651 255.307 128.216 256.361Z" fill="#446C5A"></path><path fill-rule="evenodd" clip-rule="evenodd" d="M135.239 256.023C135.441 255.702 135.346 255.279 135.025 255.082C134.704 254.879 134.282 254.975 134.085 255.296C129.887 261.946 126.15 268.202 122.655 274.638C119.165 281.068 115.946 287.622 112.8 294.858C112.648 295.202 112.806 295.608 113.155 295.76C113.498 295.912 113.903 295.754 114.055 295.405C117.207 288.163 120.403 281.643 123.853 275.291C127.303 268.94 131.029 262.701 135.239 256.034V256.023Z" fill="#30544F"></path><path fill-rule="evenodd" clip-rule="evenodd" d="M114.117 232.591C106.874 239.889 94.1606 258.948 96.6425 269.701C99.4678 281.936 116.532 251.588 118.4 247.491C120.021 243.93 128.452 221.06 117.691 229.632C116.47 230.607 115.316 231.576 114.117 232.591Z" fill="#446C5A"></path><path fill-rule="evenodd" clip-rule="evenodd" d="M120.477 231.97C120.674 231.649 120.573 231.232 120.252 231.035C119.931 230.838 119.515 230.939 119.318 231.26C115.131 238.057 111.304 244.538 107.713 251.143C104.117 257.753 100.746 264.494 97.47 271.797C97.3181 272.141 97.47 272.547 97.8133 272.699C98.1566 272.851 98.5619 272.699 98.7138 272.355C101.967 265.097 105.327 258.39 108.912 251.797C112.502 245.197 116.318 238.733 120.483 231.976L120.477 231.97Z" fill="#30544F"></path><path fill-rule="evenodd" clip-rule="evenodd" d="M88.7742 246.279C88.6673 245.919 88.2902 245.71 87.93 245.817C87.5698 245.924 87.3616 246.302 87.4685 246.663C92.9333 265.08 100.143 279.017 109.384 291.235C118.608 303.436 129.847 313.907 143.383 325.409C143.602 325.595 143.957 325.866 144.469 326.249C150.057 330.453 173.892 348.38 179.616 375.217C179.695 375.583 180.055 375.82 180.426 375.741C180.792 375.662 181.028 375.301 180.955 374.93C175.119 347.591 150.952 329.411 145.291 325.15C144.773 324.755 144.407 324.485 144.266 324.367C130.804 312.926 119.627 302.517 110.476 290.406C101.33 278.312 94.1939 264.516 88.7798 246.268L88.7742 246.279Z" fill="#30544F"></path><path fill-rule="evenodd" clip-rule="evenodd" d="M141.002 347.304C196.506 344.227 153.21 361.691 133.286 358.857C122.092 357.262 116.256 352.505 131.446 348.96C134.508 348.245 137.89 347.552 141.002 347.304Z" fill="#446C5A"></path><path fill-rule="evenodd" clip-rule="evenodd" d="M125.227 353.373C124.85 353.39 124.563 353.711 124.58 354.083C124.597 354.461 124.917 354.748 125.295 354.731C132.56 354.388 139.623 353.807 146.664 353.029C153.727 352.246 160.745 351.271 167.921 350.116C168.292 350.059 168.546 349.704 168.489 349.332C168.428 348.96 168.079 348.707 167.707 348.763C160.52 349.919 153.519 350.893 146.523 351.666C139.505 352.443 132.476 353.018 125.233 353.362L125.227 353.373Z" fill="#30544F"></path><path fill-rule="evenodd" clip-rule="evenodd" d="M189.668 314.132C163.818 331.259 155.804 371.678 188.266 334.911C192.099 330.566 201.678 318.286 199.415 311.19C198.357 307.865 191.266 313.107 189.668 314.132Z" fill="#446C5A"></path><path fill-rule="evenodd" clip-rule="evenodd" d="M196.505 313.884C196.747 313.597 196.708 313.163 196.415 312.926C196.128 312.684 195.695 312.729 195.459 313.017C190.624 318.866 185.914 324.705 181.293 330.639C176.655 336.59 172.114 342.62 167.634 348.837C167.414 349.141 167.482 349.569 167.786 349.789C168.09 350.009 168.517 349.941 168.737 349.637C173.234 343.398 177.759 337.385 182.362 331.479C186.977 325.556 191.677 319.729 196.5 313.89L196.505 313.884Z" fill="#30544F"></path><path fill-rule="evenodd" clip-rule="evenodd" d="M82.4147 382.369C68.1759 364.91 84.8348 356.056 95.8656 361.303C108.32 367.232 110.42 369.418 110.42 369.418C110.42 369.418 106.66 344.441 120.319 341.764C133.973 339.087 138.216 362.684 138.216 362.684C150.187 293.692 209.563 320.726 192.808 350.606C209.979 330.916 226.953 344.441 220.098 361.382C231.517 342.164 291.23 340.671 253.005 387.531C250.821 390.208 248.109 392.49 244.951 394.435C235.136 391.995 221.77 388.743 204.064 384.572C162.968 374.902 134.046 382.284 107.904 393.916L106.002 393.601C95.7306 391.893 88.9882 390.428 82.4203 382.374L82.4147 382.369Z" fill="#5C8A77"></path><path fill-rule="evenodd" clip-rule="evenodd" d="M161.044 322.445C161.775 322.056 162.513 321.712 163.25 321.402C160.087 327.365 157.419 335.103 155.562 343.505C152.861 355.735 151.887 369.333 153.609 380.864C153.103 380.92 152.602 380.977 152.101 381.039C150.362 369.322 151.347 355.554 154.082 343.178C155.787 335.463 158.185 328.278 161.038 322.451L161.044 322.445ZM172.727 319.374C172.615 321.628 172.39 324.22 172.075 327.044C170.223 343.804 165.366 368.64 162.89 380.193C163.407 380.176 163.925 380.16 164.443 380.148C166.953 368.375 171.737 343.832 173.572 327.207C173.887 324.333 174.118 321.695 174.23 319.396C173.729 319.374 173.223 319.362 172.716 319.374H172.727ZM169.474 380.114C178.068 371.159 190.737 352.489 190.36 326.683C190.9 327.258 191.407 327.861 191.88 328.492C191.666 352.945 180.021 370.895 171.512 380.154C170.831 380.137 170.15 380.12 169.474 380.114Z" fill="#406856"></path><path fill-rule="evenodd" clip-rule="evenodd" d="M114.23 345.438C114.719 344.841 115.26 344.294 115.862 343.81C115.44 347.918 115.626 352.832 116.368 357.938C117.736 367.327 120.989 377.302 125.79 384.076C126.032 384.414 125.947 384.888 125.61 385.13C125.272 385.373 124.799 385.294 124.557 384.95C119.61 377.967 116.262 367.744 114.866 358.152C114.213 353.661 113.988 349.293 114.224 345.438H114.23ZM121.225 341.629C121.479 342.502 121.732 343.438 121.985 344.43C125.385 357.623 128.834 379.579 129.088 382.188C129.121 382.532 129.279 382.774 129.544 382.915C129.572 382.927 129.594 382.944 129.622 382.949C129.943 383.079 130.315 382.966 130.512 382.69C130.861 382.408 131.232 381.924 131.575 381.236C132.076 380.25 132.678 378.773 133.247 376.891C135.02 371.002 136.472 361.01 133.309 349.248C132.504 347.884 131.581 346.588 130.54 345.461C135.25 358.688 133.72 370.066 131.795 376.457C131.305 378.074 130.799 379.365 130.365 380.272C129.499 374.175 126.454 355.695 123.454 344.046C123.229 343.179 123.004 342.344 122.784 341.561C122.278 341.544 121.76 341.567 121.225 341.629Z" fill="#406856"></path><path fill-rule="evenodd" clip-rule="evenodd" d="M80.6536 380.03C79.7869 378.773 79.0946 377.573 78.5431 376.423C80.9518 378.48 83.7771 380.515 86.85 382.391C94.8643 387.3 104.511 391.143 112.744 391.825C111.81 392.214 110.876 392.614 109.947 393.014C102.119 391.803 93.4066 388.179 86.0621 383.682C84.1542 382.515 82.342 381.287 80.6536 380.024V380.03ZM77.1023 368.082C78.0309 368.482 79.0271 368.939 80.0683 369.429C92.3767 375.245 111.444 386.629 113.606 388.1C113.893 388.292 114.174 388.331 114.45 388.218C114.81 388.072 114.996 387.683 114.894 387.317C114.894 386.872 114.765 386.28 114.461 385.581C114.022 384.561 113.273 383.152 112.193 381.518C108.084 375.296 99.029 365.574 83.3325 360.919C82.6459 361.207 81.9874 361.551 81.3796 361.945C97.5826 366.273 106.813 376.124 110.927 382.352C111.861 383.766 112.525 384.984 112.947 385.902C107.719 382.679 91.5719 373.199 80.7042 368.06C79.5786 367.53 78.5093 367.04 77.5131 366.611C77.3387 367.079 77.198 367.569 77.0967 368.082H77.1023Z" fill="#406856"></path><path fill-rule="evenodd" clip-rule="evenodd" d="M204.672 341.803C205.798 341.403 206.895 341.133 207.953 340.992C193.585 352.68 189.431 366.814 188.553 374.693C188.368 376.372 188.328 377.753 188.373 378.767C191.564 373.504 201.61 357.713 208.944 348.177C210.908 345.624 212.681 343.516 214.093 342.158C214.228 342.029 214.358 341.905 214.487 341.792C214.982 342.006 215.461 342.248 215.917 342.53C215.692 342.733 215.433 342.975 215.14 343.257C213.784 344.559 212.062 346.616 210.142 349.107C201.841 359.894 190.056 378.739 188.795 381.039C188.632 381.337 188.39 381.501 188.092 381.529H188.058C187.687 381.546 187.366 381.292 187.287 380.937C187.079 380.543 186.927 379.951 186.876 379.184C186.803 378.085 186.831 376.491 187.045 374.535C187.901 366.854 191.761 353.407 204.666 341.809L204.672 341.803ZM217.183 343.438C217.509 348.493 214.628 356.18 210.013 363.737C205.646 370.889 199.742 377.888 193.545 382.414C194.215 382.532 194.89 382.65 195.571 382.78C201.52 378.131 207.114 371.396 211.307 364.526C215.602 357.487 218.432 350.274 218.697 344.959C218.241 344.401 217.735 343.894 217.189 343.443L217.183 343.438Z" fill="#406856"></path><path fill-rule="evenodd" clip-rule="evenodd" d="M238.992 349.806C239.971 349.586 240.95 349.4 241.935 349.248C228.304 360.694 222.817 374.158 220.92 382.346C220.397 384.612 220.149 386.466 220.082 387.751C220.082 387.83 220.071 387.903 220.054 387.97C224.269 382.504 239.437 363.799 250.13 352.827C251.373 351.553 252.555 350.375 253.658 349.338C254.261 349.457 254.852 349.597 255.431 349.755C254.148 350.933 252.73 352.331 251.21 353.881C240.669 364.701 225.766 383.056 221.41 388.686L218.557 388.004C218.557 387.897 218.557 387.784 218.568 387.666C218.635 386.308 218.894 384.364 219.44 382.002C221.286 374.011 226.47 361.122 238.986 349.8L238.992 349.806ZM260.361 351.936C258.825 357.803 254.717 365.09 249.224 372.106C243.686 379.173 236.752 385.93 229.621 390.664L231.602 391.143C238.474 386.364 245.087 379.838 250.417 373.036C255.831 366.127 259.928 358.902 261.65 352.894C261.251 352.551 260.817 352.235 260.367 351.936H260.361Z" fill="#406856"></path><path fill-rule="evenodd" clip-rule="evenodd" d="M141.785 354.884C142.736 348.679 148.432 332.313 154.667 331.118C154.707 331.603 147.734 350.533 147.053 355.582C146.541 359.415 146.98 364.78 143.608 364.053C139.821 364.064 141.363 358.62 141.785 354.884Z" fill="#769E8D"></path><path fill-rule="evenodd" clip-rule="evenodd" d="M216.17 367.575C218.343 364.318 228.259 353.176 232.064 354.535C232.064 354.76 221.922 368.415 220.656 370.416C218.77 373.369 218.787 374.079 216.452 372.693C213.778 371.374 214.296 370.731 216.17 367.575Z" fill="#769E8D"></path><path fill-rule="evenodd" clip-rule="evenodd" d="M426.544 399.05C443.22 387.148 432.043 377.179 421.484 379.647C409.559 382.431 407.206 383.874 407.206 383.874C407.206 383.874 417.398 364.109 406.936 359.68C396.474 355.245 386.27 373.803 386.27 373.803C396.063 315.53 339.558 327.816 344.825 354.957C336.316 336.061 318.509 344.306 319.325 359.257C315.402 341.691 266.743 330.639 284.831 375.172C285.866 377.714 287.448 380.03 289.485 382.132C298.254 381.755 310.163 381.304 325.904 380.819C362.441 379.692 384.114 390.479 402.299 404.28L403.953 404.337C412.885 404.635 418.845 404.551 426.533 399.062L426.544 399.05Z" fill="#5C8A77"></path><path fill-rule="evenodd" clip-rule="evenodd" d="M378.953 337.199C378.464 336.76 377.952 336.36 377.434 335.982C378.34 341.364 378.329 348.121 377.462 355.284C376.207 365.71 373.134 376.965 368.435 386.094C368.834 386.224 369.228 386.353 369.622 386.483C374.383 377.207 377.496 365.812 378.768 355.262C379.561 348.685 379.634 342.429 378.948 337.199H378.953ZM370.219 332.77C369.673 334.63 369.121 336.782 368.575 339.138C365.328 353.12 362.255 374.186 361 384.026C360.584 383.925 360.156 383.829 359.734 383.733C361.023 373.713 364.073 352.9 367.292 339.025C367.849 336.63 368.412 334.438 368.969 332.544C369.386 332.606 369.808 332.685 370.219 332.776V332.77ZM355.608 382.876C351.089 374.152 345.985 356.834 353.644 335.836C353.036 336.219 352.445 336.625 351.883 337.064C345.101 357.054 349.564 373.623 353.926 382.578C354.494 382.673 355.057 382.775 355.614 382.882L355.608 382.876Z" fill="#406856"></path><path fill-rule="evenodd" clip-rule="evenodd" d="M410.892 363.67C410.661 363.101 410.369 362.565 410.014 362.069C409.193 365.49 407.639 369.469 405.574 373.515C401.78 380.949 396.265 388.557 390.389 393.296C390.097 393.533 390.029 393.933 390.237 394.187C390.446 394.44 390.862 394.452 391.155 394.215C397.21 389.329 402.872 381.54 406.75 373.944C408.568 370.382 409.992 366.854 410.892 363.676V363.67ZM406.221 359.409C405.765 360.08 405.287 360.801 404.797 361.568C398.246 371.774 389.162 389.126 388.211 391.211C388.088 391.487 387.891 391.656 387.632 391.73C387.603 391.735 387.581 391.741 387.558 391.747C387.255 391.797 386.984 391.651 386.9 391.386C386.692 391.099 386.529 390.642 386.438 390.028C386.309 389.137 386.23 387.836 386.303 386.207C386.523 381.112 388.172 372.721 394.121 363.636C395.173 362.655 396.299 361.748 397.475 361.004C389.838 371.019 387.857 380.56 387.62 386.088C387.558 387.486 387.615 388.624 387.71 389.436C390.159 384.606 397.92 370.021 403.7 361.016C404.133 360.345 404.549 359.702 404.96 359.094C405.382 359.161 405.799 359.268 406.221 359.404V359.409Z" fill="#406856"></path><path fill-rule="evenodd" clip-rule="evenodd" d="M428.66 397.427C429.729 396.548 430.641 395.68 431.423 394.829C428.857 396.114 425.959 397.303 422.897 398.335C414.911 401.017 405.883 402.567 398.922 401.773C399.58 402.246 400.233 402.725 400.88 403.204C407.662 403.508 415.856 401.981 423.173 399.518C425.069 398.881 426.91 398.177 428.66 397.427ZM434.975 388.264C434.097 388.439 433.151 388.641 432.155 388.873C420.381 391.589 401.471 397.737 399.271 398.583C398.984 398.695 398.736 398.679 398.545 398.538C398.291 398.357 398.246 398.008 398.432 397.726C398.556 397.36 398.837 396.903 399.282 396.379C399.935 395.618 400.948 394.593 402.298 393.437C407.448 389.036 417.657 382.594 431.885 381.383C432.369 381.732 432.808 382.115 433.196 382.538C418.642 383.406 408.253 389.921 403.098 394.322C401.927 395.325 401.032 396.21 400.424 396.886C405.641 395.117 421.614 390.039 432.009 387.638C433.084 387.39 434.102 387.171 435.048 386.985C435.059 387.396 435.036 387.819 434.969 388.253L434.975 388.264Z" fill="#406856"></path><path fill-rule="evenodd" clip-rule="evenodd" d="M337.577 345.811C336.766 345.298 335.939 344.898 335.112 344.61C343.599 356.513 342.991 368.737 341.466 375.308C341.139 376.705 340.779 377.844 340.453 378.661C339.327 373.837 335.562 359.297 332.247 350.308C331.358 347.902 330.502 345.89 329.731 344.548C329.658 344.419 329.585 344.3 329.512 344.182C329.045 344.272 328.583 344.396 328.127 344.548C328.257 344.751 328.397 344.994 328.561 345.27C329.303 346.555 330.136 348.516 331.003 350.866C334.757 361.033 339.085 378.351 339.468 380.436C339.518 380.707 339.67 380.881 339.907 380.949H339.935C340.233 381.034 340.576 380.876 340.74 380.6C341.027 380.307 341.314 379.85 341.572 379.236C341.944 378.351 342.377 377.043 342.754 375.415C344.24 369.007 344.887 357.398 337.582 345.805L337.577 345.811ZM326.827 345.084C325.122 349.158 325.302 355.904 326.945 362.83C328.499 369.385 331.363 376.069 335.168 380.786C334.583 380.769 333.992 380.757 333.401 380.752C329.833 375.978 327.154 369.559 325.662 363.264C324.131 356.817 323.856 350.46 325.156 346.076C325.69 345.698 326.247 345.366 326.827 345.089V345.084Z" fill="#406856"></path><path fill-rule="evenodd" clip-rule="evenodd" d="M307.084 346.69C306.341 346.346 305.587 346.036 304.821 345.749C312.768 357.33 313.455 369.221 312.678 376.221C312.464 378.159 312.138 379.709 311.828 380.768C311.811 380.83 311.794 380.892 311.789 380.954C309.881 375.803 302.728 358.034 297.066 347.321C296.407 346.076 295.766 344.92 295.158 343.895C294.629 343.895 294.1 343.911 293.582 343.945C294.303 345.117 295.074 346.487 295.873 348.009C301.461 358.575 308.491 376.006 310.472 381.321L313.01 381.231C313.038 381.14 313.066 381.05 313.094 380.954C313.426 379.833 313.764 378.204 313.989 376.187C314.743 369.362 314.152 357.989 307.084 346.69ZM288.911 344.909C288.506 349.953 289.806 356.575 292.327 363.202C294.865 369.88 298.642 376.542 303.161 381.574L301.394 381.642C297.105 376.609 293.526 370.196 291.083 363.766C288.601 357.234 287.284 350.663 287.583 345.478C288.01 345.264 288.455 345.078 288.911 344.909Z" fill="#406856"></path><path fill-rule="evenodd" clip-rule="evenodd" d="M350.335 359.99C350.115 354.653 352.209 340.564 357.218 339.504C357.331 339.921 354.59 356.22 354.837 360.559C355.034 363.85 356.272 368.46 353.34 367.852C350.177 367.88 350.583 363.197 350.329 359.984L350.335 359.99Z" fill="#769E8D"></path><path fill-rule="evenodd" clip-rule="evenodd" d="M285.332 368.933C283.857 366.223 279.884 354.996 282.535 352.398C282.703 352.472 288.438 364.639 289.378 366.245C290.751 368.635 291.286 368.838 289.249 370.263C287.116 371.977 286.862 371.374 285.332 368.933Z" fill="#769E8D"></path><path fill-rule="evenodd" clip-rule="evenodd" d="M431.385 477.594L279.148 468.374C268.64 482.762 234.186 482.762 223.684 468.374L77.2266 477.594C77.2266 477.594 142.669 450.177 250.535 449.467C358.401 448.756 431.391 477.594 431.391 477.594H431.385Z" fill="#533500"></path><path fill-rule="evenodd" clip-rule="evenodd" d="M251.295 449.743V392.84C277.966 360.125 396.013 382.549 422.42 405.841L472.458 449.979C449.738 449.337 437.942 447.466 375.038 429.979C297.264 407.053 259.619 425.25 251.295 449.743Z" fill="white"></path><path fill-rule="evenodd" clip-rule="evenodd" d="M251.329 449.743V392.84C224.657 360.125 106.605 382.549 80.2036 405.841L30.165 449.985C66.8089 449.365 61.6987 448.593 127.58 429.979C205.944 406.579 242.999 425.25 251.323 449.743H251.329Z" fill="white"></path><path fill-rule="evenodd" clip-rule="evenodd" d="M251.328 449.506C251.328 449.506 246.133 421.142 193.264 419.254C137.091 417.248 96.2823 447.556 30.1646 449.979L1.31543 479.589C167.572 475.808 158.196 447.325 229.446 462.665C235.384 454.026 243.314 449.653 251.272 449.546L251.328 449.506Z" fill="#E4E0D6"></path><path fill-rule="evenodd" clip-rule="evenodd" d="M251.295 449.506C251.295 449.506 256.49 421.142 309.359 419.254C365.532 417.248 406.341 447.556 472.458 449.979L497.756 475.898L499.861 479.347C333.965 475.571 344.393 447.443 273.644 462.564C267.582 453.8 259.456 449.461 251.351 449.546L251.301 449.512L251.295 449.506Z" fill="#E4E0D6"></path><path fill-rule="evenodd" clip-rule="evenodd" d="M252.437 449.743C252.437 450.374 251.93 450.881 251.3 450.881C250.67 450.881 250.163 450.368 250.163 449.743V392.84C250.163 392.208 250.67 391.701 251.3 391.701C251.93 391.701 252.437 392.214 252.437 392.84V449.743Z" fill="#CAC3C0"></path><path fill-rule="evenodd" clip-rule="evenodd" d="M470.849 448.633C471.473 448.678 471.946 449.224 471.895 449.85C471.845 450.476 471.305 450.949 470.674 450.898L470.252 450.864C439.99 448.497 436.417 448.216 374.728 431.066H374.711C342.474 421.559 317.193 419.153 298.08 421.345C275.326 423.949 261.397 433.056 254.936 444.4C254.626 444.947 253.934 445.139 253.388 444.829C252.842 444.519 252.651 443.825 252.961 443.279C259.754 431.348 274.251 421.784 297.821 419.085C317.21 416.865 342.795 419.288 375.353 428.885C436.788 445.967 440.345 446.243 470.421 448.599L470.843 448.633H470.849Z" fill="#CAC3C0"></path><path fill-rule="evenodd" clip-rule="evenodd" d="M31.5097 450.943C30.885 450.988 30.339 450.52 30.294 449.895C30.249 449.269 30.7161 448.723 31.3408 448.677L32.3201 448.599C62.3961 446.248 65.953 445.967 127.388 428.885C159.71 419.355 185.165 416.898 204.503 419.04C227.966 421.632 242.515 430.998 249.476 442.754C249.797 443.295 249.617 443.994 249.077 444.31C248.537 444.631 247.839 444.451 247.524 443.91C240.905 432.729 226.925 423.807 204.261 421.3C185.193 419.192 160.048 421.632 128.035 431.066H128.019C66.3357 448.221 62.7563 448.503 32.4946 450.87L31.5153 450.943H31.5097Z" fill="#CAC3C0"></path><path fill-rule="evenodd" clip-rule="evenodd" d="M256.073 448.869C255.797 449.179 255.319 449.207 255.004 448.931C254.694 448.655 254.666 448.176 254.948 447.86C268.252 432.971 285.491 426.541 303.14 424.698C320.722 422.866 338.698 425.599 353.573 429.065C365.712 431.894 376.529 434.831 386.907 437.654C414.332 445.104 438.707 451.732 475.706 453.129C476.122 453.146 476.449 453.496 476.432 453.913C476.415 454.33 476.066 454.657 475.65 454.64C438.454 453.231 414.012 446.586 386.508 439.114C376.118 436.29 365.296 433.348 353.224 430.536C338.473 427.098 320.666 424.388 303.286 426.197C285.975 428 269.079 434.301 256.067 448.858L256.073 448.869Z" fill="#CAC3C0"></path><path fill-rule="evenodd" clip-rule="evenodd" d="M496.394 474.117C496.811 474.128 497.143 474.472 497.132 474.894C497.12 475.311 496.777 475.644 496.361 475.633C478.452 475.199 456.79 474.032 435.207 472.172C416.342 470.549 397.499 468.385 381.217 465.714C373.31 464.412 364.862 462.473 356.313 460.512C344.281 457.751 332.062 454.938 320.998 453.845C313.603 453.113 305.616 453.484 297.957 454.482C288.535 455.711 279.609 457.892 272.856 460.14C272.462 460.27 272.034 460.056 271.899 459.661C271.77 459.267 271.984 458.838 272.378 458.703C279.21 456.432 288.237 454.223 297.76 452.983C305.526 451.968 313.625 451.591 321.144 452.34C332.31 453.451 344.573 456.268 356.646 459.041C365.172 461.002 373.603 462.935 381.454 464.226C397.668 466.892 416.477 469.044 435.325 470.668C456.936 472.527 478.559 473.694 496.389 474.128L496.394 474.117Z" fill="#CAC3C0"></path><path fill-rule="evenodd" clip-rule="evenodd" d="M492.336 469.619C492.753 469.619 493.09 469.963 493.085 470.38C493.085 470.797 492.741 471.135 492.325 471.13C473.336 470.916 454.24 469.862 436.034 468.194C416.46 466.401 397.927 463.905 381.645 460.991L381.6 460.98C370.895 459.255 361.3 456.979 352.205 454.815C324.864 448.317 302.054 442.901 268.516 457.289C268.134 457.452 267.689 457.272 267.52 456.888C267.357 456.505 267.537 456.06 267.92 455.897C301.919 441.306 324.948 446.778 352.554 453.338C361.648 455.496 371.244 457.779 381.836 459.481L381.909 459.492C398.191 462.406 416.679 464.897 436.163 466.683C454.336 468.351 473.387 469.405 492.331 469.614L492.336 469.619Z" fill="#CAC3C0"></path><path fill-rule="evenodd" clip-rule="evenodd" d="M259.545 450.227C259.236 450.504 258.757 450.481 258.481 450.171C258.206 449.861 258.228 449.382 258.538 449.1C269.535 439.26 283.56 433.918 298.598 431.714C316.726 429.06 336.339 430.965 353.882 435.051C364.006 437.412 373.062 439.683 381.583 441.825C412.756 449.658 436.844 455.711 480.585 457.616C481.001 457.633 481.328 457.988 481.311 458.405C481.294 458.822 480.939 459.149 480.523 459.126C436.619 457.216 412.469 451.146 381.222 443.296C372.707 441.154 363.663 438.883 353.544 436.527C336.165 432.475 316.748 430.587 298.823 433.213C284.055 435.378 270.306 440.607 259.551 450.227H259.545Z" fill="#CAC3C0"></path><path fill-rule="evenodd" clip-rule="evenodd" d="M487.794 465.274C488.21 465.28 488.542 465.624 488.537 466.047C488.531 466.464 488.188 466.796 487.771 466.79C467.634 466.469 447.874 465.021 429.803 462.947C408.72 460.524 389.906 457.238 375.442 453.879C372.696 453.242 370.304 452.679 367.934 452.121C331.831 443.617 301.518 436.476 265.612 454.251C265.235 454.437 264.784 454.279 264.599 453.907C264.413 453.53 264.565 453.079 264.942 452.893C301.338 434.87 331.887 442.067 368.278 450.639C370.855 451.247 373.461 451.862 375.78 452.397C390.187 455.745 408.946 459.019 429.977 461.437C448.032 463.51 467.741 464.953 487.799 465.274H487.794Z" fill="#CAC3C0"></path><path fill-rule="evenodd" clip-rule="evenodd" d="M262.095 451.879C261.734 452.093 261.273 451.98 261.053 451.619C260.839 451.259 260.952 450.796 261.312 450.577C276.649 441.329 291.568 437.051 306.719 436.037C321.841 435.022 337.178 437.26 353.386 441.036L357.258 441.937C396.564 451.106 434.266 459.898 484.361 461.493C484.778 461.504 485.104 461.854 485.093 462.271C485.082 462.688 484.733 463.02 484.316 463.003C434.052 461.403 396.289 452.594 356.915 443.414L353.037 442.512C336.958 438.764 321.763 436.55 306.815 437.547C291.895 438.55 277.206 442.76 262.089 451.873L262.095 451.879Z" fill="#CAC3C0"></path><path fill-rule="evenodd" clip-rule="evenodd" d="M247.529 447.861C247.805 448.171 247.783 448.65 247.473 448.931C247.163 449.207 246.685 449.185 246.404 448.869C233.392 434.307 216.496 428.012 199.185 426.208C181.805 424.399 163.998 427.11 149.248 430.548C137.175 433.36 126.353 436.302 115.964 439.125C88.4651 446.598 64.0171 453.243 26.8216 454.651C26.4052 454.668 26.0562 454.342 26.0393 453.925C26.0281 453.507 26.3545 453.152 26.771 453.141C63.7694 451.738 88.1443 445.116 115.57 437.666C125.948 434.848 136.765 431.906 148.904 429.077C163.779 425.611 181.755 422.878 199.342 424.709C216.992 426.547 234.23 432.982 247.535 447.872L247.529 447.861Z" fill="#CAC3C0"></path><path fill-rule="evenodd" clip-rule="evenodd" d="M6.11679 475.633C5.70032 475.644 5.35138 475.312 5.34012 474.895C5.32887 474.478 5.66092 474.128 6.07739 474.117C23.9069 473.683 45.5353 472.522 67.1468 470.657C86.0006 469.034 104.804 466.881 121.018 464.215C128.869 462.925 137.3 460.986 145.826 459.03C157.898 456.258 170.162 453.44 181.328 452.33C188.847 451.586 196.945 451.958 204.712 452.972C214.229 454.218 223.262 456.421 230.094 458.692C230.488 458.822 230.708 459.25 230.573 459.65C230.443 460.045 230.016 460.265 229.616 460.129C222.862 457.886 213.936 455.705 204.515 454.471C196.855 453.468 188.869 453.096 181.474 453.834C170.415 454.933 158.191 457.74 146.158 460.501C137.615 462.463 129.162 464.407 121.254 465.703C104.973 468.38 86.1301 470.538 67.265 472.161C45.6816 474.021 24.0195 475.182 6.11116 475.622L6.11679 475.633Z" fill="#CAC3C0"></path><path fill-rule="evenodd" clip-rule="evenodd" d="M10.1514 471.13C9.73491 471.13 9.3916 470.797 9.3916 470.38C9.3916 469.963 9.72365 469.62 10.1401 469.62C29.0783 469.405 48.1291 468.352 66.3076 466.689C85.7917 464.903 104.285 462.412 120.561 459.498L120.635 459.487C131.227 457.785 140.822 455.502 149.917 453.344C177.522 446.784 200.552 441.312 234.545 455.902C234.928 456.066 235.108 456.511 234.945 456.894C234.782 457.278 234.337 457.458 233.954 457.294C200.417 442.901 177.607 448.322 150.266 454.82C141.171 456.979 131.581 459.261 120.871 460.986L120.826 460.997C104.55 463.911 86.0112 466.407 66.4426 468.199C48.2361 469.868 29.1403 470.921 10.1514 471.136V471.13Z" fill="#CAC3C0"></path><path fill-rule="evenodd" clip-rule="evenodd" d="M243.938 449.1C244.248 449.382 244.276 449.856 244 450.171C243.724 450.481 243.246 450.509 242.931 450.227C232.181 440.607 218.427 435.378 203.664 433.214C185.739 430.587 166.323 432.475 148.943 436.527C138.824 438.883 129.78 441.16 121.265 443.296C90.0181 451.146 65.8684 457.216 21.9643 459.126C21.5479 459.143 21.1933 458.822 21.1764 458.405C21.1595 457.988 21.4803 457.633 21.8968 457.616C65.6376 455.711 89.7254 449.658 120.899 441.825C129.425 439.683 138.475 437.406 148.6 435.051C166.142 430.965 185.756 429.054 203.884 431.714C218.922 433.918 232.941 439.261 243.944 449.1H243.938Z" fill="#CAC3C0"></path><path fill-rule="evenodd" clip-rule="evenodd" d="M14.7049 466.785C14.2885 466.791 13.9452 466.458 13.9395 466.041C13.9339 465.624 14.2659 465.28 14.6824 465.269C34.7406 464.948 54.4499 463.505 72.5045 461.431C93.5363 459.013 112.289 455.739 126.696 452.392C129.015 451.851 131.621 451.236 134.199 450.633C170.589 442.062 201.138 434.865 237.534 452.888C237.911 453.074 238.063 453.53 237.878 453.902C237.692 454.28 237.236 454.432 236.865 454.246C200.958 436.465 170.651 443.606 134.548 452.115C132.178 452.673 129.781 453.237 127.034 453.874C112.57 457.233 93.7558 460.518 72.6733 462.942C54.6018 465.021 34.8419 466.464 14.7049 466.785Z" fill="#CAC3C0"></path><path fill-rule="evenodd" clip-rule="evenodd" d="M241.165 450.577C241.525 450.791 241.637 451.259 241.423 451.62C241.21 451.98 240.742 452.093 240.382 451.879C225.271 442.766 210.576 438.55 195.657 437.553C180.709 436.55 165.513 438.77 149.434 442.518L145.562 443.42C106.188 452.606 68.4244 461.414 18.1607 463.009C17.7443 463.02 17.3953 462.694 17.3841 462.276C17.3728 461.859 17.6992 461.51 18.1157 461.499C68.2105 459.904 105.913 451.112 145.218 441.943L149.091 441.041C165.305 437.266 180.635 435.028 195.758 436.043C210.908 437.057 225.828 441.334 241.165 450.583V450.577Z" fill="#CAC3C0"></path><path fill-rule="evenodd" clip-rule="evenodd" d="M276.418 469.529C276.857 470.341 277.87 470.64 278.68 470.2C279.491 469.76 279.789 468.746 279.344 467.934C275.844 461.487 271.595 456.573 266.952 453.22C262.033 449.669 256.681 447.872 251.311 447.872C245.92 447.872 240.551 449.636 235.626 453.169C231.006 456.483 226.768 461.358 223.273 467.794C222.834 468.605 223.132 469.614 223.942 470.059C224.753 470.499 225.76 470.2 226.205 469.394C229.441 463.432 233.341 458.929 237.579 455.897C241.935 452.775 246.635 451.214 251.317 451.214C255.983 451.214 260.671 452.803 265.01 455.936C269.253 459.002 273.165 463.544 276.418 469.541V469.529Z" fill="#F5F0E1"></path><path fill-rule="evenodd" clip-rule="evenodd" d="M500.119 487.017C502.573 487.18 504.695 485.321 504.858 482.863C505.021 480.406 503.164 478.282 500.71 478.118L279.428 463.787C276.975 463.623 274.853 465.483 274.69 467.94C274.526 470.397 276.384 472.522 278.838 472.686L500.119 487.017Z" fill="#A36642"></path><path fill-rule="evenodd" clip-rule="evenodd" d="M4.74876 487.338C2.29495 487.502 0.173196 485.642 0.00998404 483.185C-0.153228 480.728 1.70402 478.603 4.15783 478.439L223.194 463.787C225.648 463.623 227.77 465.483 227.933 467.94C228.096 470.397 226.239 472.522 223.785 472.686L4.74876 487.338Z" fill="#A36642"></path><path fill-rule="evenodd" clip-rule="evenodd" d="M227.561 466.193C226.289 464.103 223.599 463.454 221.539 464.745C219.485 466.036 218.849 468.78 220.115 470.871C226.317 481.105 240.325 484.047 251.306 484.047C262.286 484.047 276.294 481.105 282.496 470.871C283.768 468.78 283.126 466.036 281.072 464.745C279.018 463.454 276.322 464.103 275.05 466.193C270.705 473.362 258.836 475.115 251.3 475.115C243.764 475.115 231.895 473.362 227.55 466.193H227.561Z" fill="#A36642"></path></svg>