<svg xmlns="http://www.w3.org/2000/svg" width="83" height="83" viewBox="0 0 83 83" fill="none"><path d="M7.62043 79.5258L8.72816 75.1017L5.6735 73.8958L3.57527 77.3537C3.57527 77.3537 4.7321 80.4915 3.44727 82.9998C3.44827 83.0001 5.05601 80.2616 7.62043 79.5258ZM5.56829 77.4958C5.9443 77.3417 6.37767 77.5176 6.53298 77.8868C6.68955 78.256 6.51119 78.6811 6.13518 78.8352C5.75917 78.9893 5.3258 78.8134 5.17049 78.4442C5.01242 78.0734 5.19103 77.6483 5.56829 77.4958Z" fill="#F9AB00"></path><path d="M39.668 28.2121C30.8716 35.4266 19.3556 50.2876 9.58917 67.6473L9.58365 67.6406L7.87646 70.6531L9.69688 71.3535L10.6588 68.8192C15.8691 59.4275 30.0038 34.9008 55.8491 18.6053C55.8491 18.6053 65.4713 12.8745 74.9516 4.94873C72.6435 6.87812 68.09 9.29649 65.6211 10.8566C59.141 14.9509 51.1444 18.7986 39.668 28.2121Z" fill="#F9AB00"></path><path d="M8.31654 53.95C6.31626 61.02 6.43074 66.4045 7.2048 67.8843H8.41474C11.7557 60.9641 27.8469 35.8966 37.8626 28.05C48.2395 19.9199 56.2441 15.1894 62.9764 11.7394C65.3404 10.5282 67.7656 8.88766 69.9525 7.24309C72.6081 5.14887 75.3003 2.90886 77.6575 0.716694L70.8245 5.19797L73.8711 0.538084L68.0544 6.45275L71.8395 0C62.885 0.807878 54.5753 5.2879 54.5753 5.2879C51.2508 9.2311 48.5734 15.504 48.5734 15.504C48.4807 12.3674 50.605 7.61785 50.605 7.61785C49.0353 8.33454 43.0716 11.7409 43.0716 11.7409C40.1544 14.1608 39.2484 20.5236 39.2484 20.5236C38.6937 18.0138 40.6327 13.1755 40.6327 13.1755C32.23 18.0153 26.2281 26.2597 26.2281 26.2597C22.0738 34.4143 25.4896 40.7772 24.1965 39.2538C22.9034 37.7305 23.1815 32.1743 23.1815 32.1743C14.4096 40.5988 13.4872 44.6304 13.4872 44.6304C12.0102 48.2152 10.7171 57.8045 10.7171 57.8045C9.88595 56.9079 10.7171 51.8898 10.7171 51.8898C8.5931 56.3711 9.6094 60.5826 9.6094 60.5826C8.59435 60.2231 8.31654 53.95 8.31654 53.95Z" fill="#F9AB00"></path><path d="M77.6588 3.55493C77.6588 3.55493 74.2812 6.82778 69.9538 10.0813C63.1699 15.4319 56.6379 19.8057 56.6379 19.8057C31.0486 34.9266 16.7899 59.6031 12.0771 68.0642H14.5827C15.4682 67.3542 16.7982 66.8189 22.3519 65.2112C29.3687 63.1796 33.5544 58.9383 33.5544 58.9383C33.5544 58.9383 27.1533 62.523 24.1367 62.1648C21.1201 61.8066 17.0667 62.9414 17.0667 62.9414C17.0667 62.9414 15.5188 62.2247 23.1517 61.0896C30.7846 59.9546 43.3414 51.4116 43.3414 51.4116C43.3414 51.4116 38.54 53.3831 36.3245 53.2032C34.109 53.0234 28.6305 53.2032 28.6305 53.2032C32.2616 52.3665 35.6474 52.845 41.1873 50.7535C46.7272 48.6621 46.4193 48.8419 46.4193 48.8419C52.6978 46.7505 55.3058 40.2391 55.3058 40.2391C54.2198 40.6574 45.9261 41.6725 42.4859 40.6574C39.0455 39.6424 33.1842 40.6574 33.1842 40.6574C38.7241 38.8057 39.9558 39.6424 41.3088 39.5825C42.663 39.5227 47.0341 39.8809 55.7133 36.8944C64.3926 33.9078 66.8545 30.2031 66.8545 30.2031L61.0012 30.9852C64.8232 30.3422 69.1314 27.8133 69.1314 27.8133C66.484 28.53 62.3597 28.8882 62.3597 28.8882C67.2225 27.8133 69.9312 26.3198 69.9312 26.3198C74.4862 22.8548 75.5325 17.717 75.5325 17.717C69.0687 19.9269 63.9607 18.9119 63.9607 18.9119C72.8253 18.3152 75.2873 16.0438 76.5175 15.507C77.7492 14.9689 78.256 12.7439 78.256 12.7439C73.7775 14.3572 68.6992 14.6255 68.6992 14.6255C74.1928 13.774 78.9003 10.9957 78.9003 10.9957V8.21457C76.7763 9.42451 73.0387 10.3659 73.0387 10.3659L78.8552 6.60257C79.1821 4.71978 77.6588 3.55493 77.6588 3.55493Z" fill="#F9AB00"></path><path d="M5.89941 72.7894L9.35889 74.1752L10.0032 72.6436L6.54396 71.2581L5.89941 72.7894Z" fill="#F9AB00"></path><path d="M44.3481 71.5086C32.918 77.0037 21.9374 80.7492 7.33398 81.2397C5.97148 81.2861 5.96472 82.6486 7.33398 82.6022C20.3978 82.1636 31.268 79.3554 41.7511 74.442C53.4291 68.9675 64.155 64.38 78.7827 62.8211C80.1317 62.6766 79.558 61.3647 78.2186 61.5077C65.264 62.8895 54.7385 66.5138 44.3481 71.5086Z" fill="#F9AB00"></path></svg>